<?xml version="1.0" encoding="utf-8"?>
<!-- Generator: Adobe Illustrator 16.0.0, SVG Export Plug-In . SVG Version: 6.00 Build 0)  -->
<!DOCTYPE svg PUBLIC "-//W3C//DTD SVG 1.1//EN" "http://www.w3.org/Graphics/SVG/1.1/DTD/svg11.dtd">
<svg version="1.1" id="Sidewalk" xmlns="http://www.w3.org/2000/svg" xmlns:xlink="http://www.w3.org/1999/xlink" x="0px" y="0px"
	 width="" height="33.333px" viewBox="0 0 1068.039 33.333" enable-background="new 0 0 1068.039 33.333"
	 xml:space="preserve">
<path id="Background_Grey" fill="#0A233A" d="M1058.876,29.522l-32.25-1.939l-305.81,0.279v-0.054
	c-0.063-0.002-0.136-0.002-0.195-0.006c-0.592-0.04-2.014-0.057-3.9-0.057c-7.577,0-22.778,0.263-24.594,0.263
	c-1.064,0-11.824-0.139-22.99-0.284l-0.215-0.003c-12.508-0.164-25.449-0.337-25.793-0.337c-0.569,0-46.9,0.505-58.473,0.631
	c-1.652,0.019-2.594,0.028-2.597,0.028h-0.017c0,0-0.559-0.021-1.543-0.057s-2.395-0.087-4.096-0.149
	c-3.402-0.123-7.967-0.288-12.621-0.453c-9.306-0.329-18.983-0.659-20.392-0.659h-1.747c-5.551,0-21.925,0.023-31.976,0.372
	c-3.347,0.115-6.001,0.269-7.283,0.464c-0.329,0.049-0.568,0.104-0.67,0.146l-0.097,0.155l-0.228,0.177
	c-0.166,0.091-0.362,0.156-0.599,0.217c-0.472,0.117-1.106,0.203-1.858,0.27c-1.502,0.131-3.472,0.178-5.427,0.178
	c-3.159,0-6.259-0.122-7.268-0.223c-0.097-0.01-0.422-0.025-0.914-0.042c-0.495-0.017-1.167-0.036-1.995-0.058
	c-1.655-0.042-3.93-0.093-6.646-0.148c-5.434-0.111-12.637-0.244-20.192-0.378c-15.111-0.267-31.63-0.536-38.226-0.643
	c-1.85-0.03-2.911-0.047-2.952-0.048c-0.03,0.001-1.266,0.029-3.294,0.076c-2.051,0.049-4.904,0.116-8.114,0.194
	c-6.419,0.156-14.264,0.355-19.962,0.523c-3.797,0.112-6.651,0.212-7.467,0.275c-0.102,0.008-0.176,0.017-0.186,0.019l0-0.002
	l-0.068,0.016l-0.067,0.006l-0.173,0.008c-0.138,0.003-0.327,0.005-0.565,0.005c-6.634,0-52.21-1.335-52.379-1.34l-56.672,0.659
	h-0.002c0,0-20.431,0-21.749,0c-0.133-0.001-1.305,0.042-3.229,0.116c-1.927,0.075-4.623,0.182-7.851,0.312
	c-6.457,0.259-15.042,0.606-23.868,0.966c-17.652,0.718-36.262,1.478-40.719,1.647c-0.598,0.022-0.929,0.034-1.003,0.034
	c-0.091,0-0.806,0.024-1.956,0.065c-1.154,0.043-2.759,0.103-4.67,0.175c-3.824,0.145-8.877,0.337-14.012,0.529
	c-10.274,0.384-20.863,0.769-22.64,0.769c-2.34,0-16.304,0.098-25.875,0.098c-3.589,0-6.559-0.013-8.075-0.051
	c-0.508-0.014-0.844-0.027-1.022-0.049c-0.028-0.004-0.155-0.014-0.341-0.022c-0.188-0.01-0.446-0.021-0.767-0.034
	c-0.641-0.025-1.536-0.057-2.651-0.094c-2.23-0.074-5.339-0.168-9.059-0.277c-7.439-0.218-17.32-0.493-27.5-0.775
	c-20.359-0.564-41.907-1.156-47.502-1.368c-0.75-0.028-1.654-0.049-1.816-0.064C0.042,29.578,0,29.575,0,29.575v3.758h1068.039
	v-4.435l-0.001,0.669L1058.876,29.522z"/>
<path id="Background_Blue" fill="#0D3057" d="M0,0.474v29.102c0.019,0.001,0.042,0.003,0.059,0.005
	c0.163,0.016,1.066,0.036,1.816,0.064c5.595,0.212,27.143,0.804,47.502,1.368c10.179,0.282,20.061,0.558,27.5,0.775
	c3.72,0.109,6.829,0.203,9.059,0.277c1.115,0.037,2.01,0.068,2.651,0.094c0.321,0.014,0.578,0.024,0.767,0.034
	c0.187,0.009,0.313,0.019,0.341,0.022c0.178,0.021,0.514,0.035,1.022,0.049c1.516,0.038,4.485,0.051,8.075,0.051
	c9.57,0,23.535-0.098,25.875-0.098c1.777,0,12.366-0.385,22.64-0.769c5.135-0.192,10.188-0.385,14.012-0.529
	c1.912-0.072,3.517-0.132,4.67-0.175c1.15-0.041,1.865-0.065,1.956-0.065c0.075,0,0.406-0.012,1.003-0.034
	c4.457-0.17,23.067-0.93,40.719-1.647c8.826-0.359,17.411-0.707,23.868-0.966c3.228-0.13,5.924-0.236,7.851-0.312
	c1.923-0.074,3.095-0.117,3.229-0.116c1.318,0,21.749,0,21.749,0h0.002l56.672-0.659c0.169,0.005,45.745,1.34,52.379,1.34
	c0.238,0,0.427-0.002,0.565-0.005l0.173-0.008l0.067-0.006l0.068-0.016l0,0.002c0.01-0.002,0.084-0.011,0.186-0.019
	c0.816-0.063,3.67-0.163,7.467-0.275c5.698-0.168,13.543-0.367,19.962-0.523c3.21-0.078,6.063-0.146,8.114-0.194
	c2.028-0.047,3.264-0.075,3.294-0.076c0.041,0.001,1.102,0.018,2.952,0.048c6.596,0.106,23.115,0.376,38.226,0.643
	c7.555,0.134,14.758,0.267,20.192,0.378c2.717,0.056,4.992,0.106,6.646,0.148c0.827,0.021,1.5,0.041,1.995,0.058
	c0.492,0.017,0.817,0.032,0.914,0.042c1.009,0.101,4.109,0.223,7.268,0.223c1.955,0,3.925-0.047,5.427-0.178
	c0.752-0.066,1.386-0.152,1.858-0.27c0.237-0.061,0.433-0.126,0.599-0.217l0.228-0.177l0.097-0.155
	c0.102-0.042,0.341-0.098,0.67-0.146c1.282-0.195,3.936-0.349,7.283-0.464c10.05-0.349,26.425-0.372,31.976-0.372h1.747
	c1.408,0,11.086,0.33,20.392,0.659c4.654,0.165,9.219,0.33,12.621,0.453c1.701,0.062,3.111,0.113,4.096,0.149
	s1.543,0.057,1.543,0.057h0.017c0.003,0,0.944-0.01,2.597-0.028c11.572-0.126,57.903-0.631,58.473-0.631
	c0.344,0,13.285,0.173,25.793,0.337l0.215,0.003c11.166,0.146,21.926,0.284,22.99,0.284c1.815,0,17.017-0.263,24.594-0.263
	c1.887,0,3.309,0.017,3.9,0.057c0.06,0.004,0.132,0.004,0.195,0.006v0.054l305.81-0.279l32.25,1.939l9.163,0.045V0.474H0z"/>
<g>
	<path fill="#D1AC5E" d="M720.816,21.507v0.015c-8.335,0.139-24.206,0.191-43.303,0.191c-54.532,0-135.275-0.421-141.587-0.421
		c-6.305,0-79.063-0.421-128.83-0.421c-12.442,0-23.447,0.026-31.619,0.092c-4.086,0.033-7.463,0.076-9.959,0.13
		c-1.248,0.027-2.275,0.058-3.062,0.091c-0.788,0.034-1.329,0.068-1.632,0.111c-0.453,0.066-1.38,0.116-2.682,0.147
		c-1.304,0.031-2.991,0.046-5,0.046c-8.866,0-23.987-0.279-40.188-0.583l-0.064-0.001c-19.235-0.36-39.983-0.755-53.593-0.755
		c-5.196,0-9.351,0.058-11.995,0.196c-17.967,0.945-114.502,4.732-127.726,4.731c-13.231,0-61.495-1.893-83.27-1.893
		c-10.873,0-22.933-0.474-32.274-0.945C2.773,22.175,0,22.049,0,22.049v0.661c0,0,12.62,0.616,19.672,0.841v5.975
		c-1.852-0.053-3.622-0.104-5.276-0.151c-3.954-0.114-7.281-0.214-9.687-0.292c-1.203-0.038-2.174-0.071-2.878-0.099
		c-0.701-0.026-1.598-0.048-1.706-0.059C0.089,28.921,0,28.913,0,28.913v0.662c0,0,0.042,0.003,0.059,0.005
		c0.163,0.016,1.066,0.036,1.816,0.064c5.595,0.212,27.143,0.804,47.502,1.368c10.179,0.282,20.061,0.558,27.5,0.775
		c3.72,0.109,6.829,0.203,9.059,0.277c1.115,0.037,2.01,0.068,2.651,0.094c0.321,0.014,0.578,0.024,0.767,0.034
		c0.187,0.009,0.313,0.019,0.341,0.022c0.178,0.021,0.514,0.035,1.022,0.049c1.516,0.038,4.485,0.051,8.075,0.051
		c9.57,0,23.535-0.098,25.875-0.098c1.777,0,12.366-0.385,22.64-0.769c5.135-0.192,10.188-0.385,14.012-0.529
		c1.912-0.072,3.517-0.132,4.67-0.175c1.15-0.041,1.865-0.065,1.956-0.065c0.075,0,0.406-0.012,1.003-0.034
		c4.457-0.17,23.067-0.93,40.719-1.647c8.826-0.359,17.411-0.707,23.868-0.966c3.228-0.13,5.924-0.236,7.851-0.312
		c1.923-0.074,3.095-0.117,3.229-0.116c1.318,0,21.749,0,21.749,0h0.002l56.672-0.659c0.169,0.005,45.745,1.34,52.379,1.34
		c0.238,0,0.427-0.002,0.565-0.005l0.173-0.008l0.067-0.006l0.068-0.016l0,0.002c0.01-0.002,0.084-0.011,0.186-0.019
		c0.816-0.063,3.67-0.163,7.467-0.275c5.698-0.168,13.543-0.367,19.962-0.523c3.21-0.078,6.063-0.146,8.114-0.194
		c2.028-0.047,3.264-0.075,3.294-0.076c0.041,0.001,1.102,0.018,2.952,0.048c6.596,0.106,23.115,0.376,38.226,0.643
		c7.555,0.134,14.758,0.267,20.192,0.378c2.717,0.056,4.992,0.106,6.646,0.148c0.827,0.021,1.5,0.041,1.995,0.058
		c0.492,0.017,0.817,0.032,0.914,0.042c1.009,0.101,4.109,0.223,7.268,0.223c1.955,0,3.925-0.047,5.427-0.178
		c0.752-0.066,1.386-0.152,1.858-0.27c0.237-0.061,0.433-0.126,0.599-0.217l0.228-0.177l0.097-0.155
		c0.102-0.042,0.341-0.098,0.67-0.146c1.282-0.195,3.936-0.349,7.283-0.464c10.05-0.349,26.425-0.372,31.976-0.372h1.747
		c1.408,0,11.086,0.33,20.392,0.659c4.654,0.165,9.219,0.33,12.621,0.453c1.701,0.062,3.111,0.113,4.096,0.149
		s1.543,0.057,1.543,0.057h0.017c0.003,0,0.944-0.01,2.597-0.028c11.572-0.126,57.903-0.631,58.473-0.631
		c0.344,0,13.285,0.173,25.793,0.337l0.215,0.003c11.166,0.146,21.926,0.284,22.99,0.284c1.815,0,17.017-0.263,24.594-0.263
		c1.887,0,3.309,0.017,3.9,0.057c0.06,0.004,0.132,0.004,0.195,0.006v0.054l305.81-0.279l32.25,1.939l9.162,0.045l0.001-0.669
		l-8.83,0.185c-0.306-0.654-0.204-3.803-0.194-4.434c0.006-0.402-0.165-1.635,0.079-2.229l8.946,0.248l-0.002-0.644l-9.007-0.151
		L720.816,21.507z M83.389,31.325c-8.561-0.268-24.486-0.708-40.119-1.141c-8.214-0.228-16.338-0.453-23.268-0.649v-5.975
		c5.415,0.17,11,0.283,16.306,0.283c3.978,0,8.842,0.063,14.216,0.166v5.906c0,0.212,0.33,0.212,0.33,0v-5.899
		c9.913,0.193,21.522,0.52,32.496,0.837c0.038,2.071,0.42,4.298,0,6.331L83.389,31.325z M143.433,30.934
		c-8.93,0.331-17.248,0.625-18.767,0.625c-2.347,0-16.307,0.099-25.875,0.099c-2.392,0-4.508-0.007-6.099-0.021
		c-0.795-0.008-1.459-0.019-1.959-0.03c-0.497-0.013-0.842-0.029-0.957-0.044c-0.08-0.01-0.211-0.018-0.428-0.028
		c-0.837-0.042-2.849-0.111-5.724-0.201l0.042-0.06c0.428-2.067,0.05-4.307,0.011-6.409c14.606,0.423,28.036,0.825,34.779,0.869
		c-0.021,1.812-0.159,3.808,0.338,5.54c0.059,0.204,0.376,0.117,0.318-0.088c-0.486-1.695-0.35-3.67-0.327-5.45
		c0.275,0.001,0.542,0.002,0.792,0.002c4.072,0,15.984-0.357,31.055-0.879c0.034,1.91,0.295,3.807,0.321,5.715l0.035,0.078
		C148.511,30.744,145.949,30.84,143.433,30.934z M179.835,29.552c-0.796,0.032-1.564,0.062-2.298,0.093
		c-2.85,0.114-5.203,0.209-6.867,0.273c-0.833,0.033-1.493,0.059-1.957,0.076c-0.46,0.018-0.739,0.026-0.768,0.026
		c-0.129,0-0.822,0.024-1.98,0.066c-2.862,0.104-8.496,0.32-14.711,0.554l0.029-0.068c-0.025-1.912-0.289-3.812-0.322-5.726
		c8.864-0.308,18.8-0.671,28.874-1.052V29.552z M199.056,28.771c-6.945,0.282-13.558,0.551-18.892,0.768v-5.756
		c9.216-0.349,18.535-0.712,27.238-1.061c-0.01,1.885-0.077,3.846,0.294,5.697C204.805,28.536,201.903,28.654,199.056,28.771z
		 M244.616,26.945c-0.187,0.001-1.48,0.049-3.649,0.133c-6.199,0.241-19.423,0.776-32.938,1.327
		c-0.381-1.844-0.306-3.814-0.296-5.696c15.749-0.631,29.434-1.21,36.773-1.563c0.355,1.885,0.589,3.88,0.642,5.8H244.616z
		 M276.655,26.826l-10.294,0.119h-20.884c-0.053-1.927-0.287-3.919-0.641-5.816c0.946-0.046,1.792-0.088,2.503-0.125
		c2.619-0.138,6.77-0.195,11.96-0.195c4.971,0,10.899,0.053,17.356,0.137V26.826z M276.984,26.822v-5.873
		c11.094,0.146,23.726,0.386,35.775,0.611c0.002,0.829,0.009,1.658,0.039,2.487c0.026,0.734,0.006,1.606,0.293,2.3l0.036,0.054
		L276.984,26.822z M346.753,26.956c-6.132-0.167-12.057-0.334-16.449-0.46c-2.196-0.062-4.008-0.115-5.272-0.151
		c-1.264-0.037-1.977-0.059-1.978-0.059h-0.007l-9.657,0.112l0.019-0.139c-0.279-0.674-0.25-1.495-0.281-2.212
		c-0.037-0.827-0.04-1.654-0.04-2.481c12.961,0.243,25.22,0.47,34.13,0.55v4.844l0.004,0.01
		C347.066,26.965,346.909,26.961,346.753,26.956z M378.065,27.494c-0.558,0.022-1.006,0.044-1.327,0.062
		c-0.161,0.01-0.29,0.019-0.388,0.026l-0.126,0.014l-0.083,0.017l0-0.001c-0.015,0.003-0.103,0.008-0.226,0.01
		c-0.125,0.003-0.292,0.004-0.498,0.004c-3.232,0-15.847-0.32-27.877-0.648l0.008-0.018v-4.84c2.059,0.017,3.939,0.027,5.596,0.027
		c2.012,0,3.704-0.015,5.016-0.047c1.315-0.031,2.241-0.079,2.759-0.152c0.248-0.036,0.789-0.074,1.567-0.105
		c3.044-0.129,9.789-0.212,18.927-0.259l-0.061,0.125c0.116,1.855,0.292,3.72,0.328,5.58l0.036,0.079
		C380.248,27.414,379,27.457,378.065,27.494z M396,26.974c-4.847,0.123-9.714,0.254-13.413,0.367
		c-0.207,0.006-0.408,0.013-0.607,0.019l0.029-0.07c-0.036-1.86-0.212-3.725-0.328-5.58l-0.08-0.126
		c7.228-0.037,15.938-0.053,25.497-0.053c2.522,0,5.107,0.001,7.736,0.003c0.026,1.663,0.239,3.316,0.302,4.977
		C413.831,26.54,404.954,26.745,396,26.974z M415.464,26.509c-0.062-1.66-0.275-3.312-0.301-4.976
		c10.34,0.009,21.402,0.032,32.485,0.063v5.363l0.036,0.083C431.949,26.772,417.051,26.533,415.464,26.509z M543.392,26.067
		c-0.273,0-0.878-0.001-1.747-0.001c-4.107,0-14.135,0.013-23.153,0.161c-4.509,0.073-8.765,0.182-11.905,0.338
		c-1.571,0.078-2.862,0.169-3.774,0.275c-0.457,0.054-0.817,0.109-1.083,0.175c-0.134,0.033-0.244,0.067-0.345,0.117l-0.155,0.106
		l-0.106,0.189l-0.046,0.031c-0.132,0.081-0.489,0.187-0.967,0.263c-1.447,0.239-4.043,0.323-6.603,0.323
		c-3.136,0-6.249-0.125-7.202-0.22c-0.163-0.017-0.553-0.032-1.182-0.053c-4.568-0.147-21.266-0.452-37.184-0.726l0.038-0.088
		v-5.362c11.739,0.033,23.487,0.077,34.413,0.12c-0.289,1.83-0.281,3.727-0.282,5.571c0,0.212,0.33,0.212,0.33,0
		c0-1.843-0.014-3.744,0.282-5.569c13.71,0.056,26.101,0.113,35.513,0.156c0.059,1.371,0.275,2.73,0.306,4.1
		c0.004,0.213,0.334,0.213,0.329,0c-0.03-1.369-0.246-2.728-0.305-4.098c9.347,0.044,15.69,0.073,17.363,0.073
		c1.46,0,6.913,0.022,15.1,0.058l0.027,0.111c0.339,0.464,0.245,1.412,0.27,1.959c0.032,0.738,0.034,1.479,0.035,2.217
		C547.242,26.16,544.159,26.067,543.392,26.067z M582.064,27.385c-0.079-0.003-8.99-0.33-18.258-0.659
		c-4.238-0.149-8.545-0.3-12.119-0.419c-0.002-0.817-0.01-1.636-0.045-2.454c-0.021-0.518,0.029-1.364-0.273-1.843
		c10.264,0.044,24.729,0.105,40.996,0.166c-0.053,1.598-0.279,3.188-0.308,4.784c-0.005,0.213,0.325,0.213,0.329,0
		c0.029-1.597,0.256-3.185,0.309-4.783c12.655,0.047,26.387,0.093,40.084,0.128l-0.025,0.061c0.021,1.515,0.27,2.994,0.622,4.463
		C616.23,27.012,582.463,27.381,582.064,27.385z M643.129,26.726c-0.162,0-3.887,0.039-9.416,0.099
		c-0.355-1.467-0.609-2.944-0.629-4.459l-0.026-0.06c12.119,0.031,24.2,0.054,35.472,0.062c0.001,0.984,0.006,1.968,0.039,2.951
		c0.02,0.55,0.016,1.169,0.124,1.74C656.262,26.896,643.479,26.726,643.129,26.726z M702.404,27.217
		c-5.039,0.066-9.369,0.133-10.277,0.133c-1.061,0-11.889-0.139-23.097-0.286c-0.117-0.567-0.107-1.187-0.132-1.744
		c-0.043-0.983-0.042-1.967-0.041-2.95c2.945,0.002,5.838,0.003,8.656,0.003c9.195,0,17.638-0.013,24.861-0.04
		C702.606,23.933,702.699,25.618,702.404,27.217z M734.65,27.163h-13.469v-0.002c-0.188-0.001-0.364-0.006-0.516-0.016
		c-0.637-0.042-2.051-0.059-3.945-0.059c-3.67,0-9.123,0.062-13.98,0.125c0.282-1.604,0.193-3.275-0.035-4.881
		c3.359-0.014,6.45-0.03,9.222-0.051c3.518-0.027,6.503-0.06,8.89-0.1v0.025h13.888c-0.19,0.612-0.119,1.603-0.136,1.994
		C734.538,24.937,734.329,26.34,734.65,27.163z M767.07,27.163h-32.138c-0.307-0.654-0.137-1.883-0.127-2.514
		c0.006-0.402-0.099-1.85,0.145-2.443h32.175c-0.189,0.612-0.119,1.603-0.136,1.994C766.959,24.937,766.75,26.34,767.07,27.163z
		 M799.492,27.163h-32.139c-0.307-0.654-0.137-1.883-0.127-2.514c0.006-0.402-0.098-1.85,0.145-2.443h32.175
		c-0.19,0.612-0.119,1.603-0.136,1.994C799.38,24.937,799.171,26.34,799.492,27.163z M831.912,27.163h-32.138
		c-0.306-0.654-0.137-1.883-0.127-2.514c0.006-0.402-0.099-1.85,0.146-2.443h32.174c-0.189,0.612-0.119,1.603-0.136,1.994
		C831.801,24.937,831.592,26.34,831.912,27.163z M864.334,27.163h-32.139c-0.307-0.654-0.137-1.883-0.127-2.514
		c0.006-0.402-0.098-1.85,0.145-2.443h32.175c-0.19,0.612-0.119,1.603-0.136,1.994C864.222,24.937,864.013,26.34,864.334,27.163z
		 M896.754,27.163h-32.138c-0.306-0.654-0.137-1.883-0.127-2.514c0.006-0.402-0.099-1.85,0.146-2.443h32.174
		c-0.189,0.612-0.119,1.603-0.136,1.994C896.643,24.937,896.434,26.34,896.754,27.163z M929.176,27.163h-32.139
		c-0.307-0.654-0.137-1.883-0.127-2.514c0.006-0.402-0.098-1.85,0.145-2.443h32.175c-0.19,0.612-0.119,1.603-0.136,1.994
		C929.063,24.937,928.854,26.34,929.176,27.163z M961.596,27.163h-32.138c-0.306-0.654-0.137-1.883-0.127-2.514
		c0.006-0.402-0.099-1.85,0.146-2.443h32.174c-0.189,0.612-0.119,1.603-0.136,1.994C961.484,24.937,961.275,26.34,961.596,27.163z
		 M994.018,27.163h-32.139c-0.307-0.654-0.137-1.883-0.127-2.514c0.006-0.402-0.098-1.85,0.145-2.443h32.175
		c-0.19,0.612-0.119,1.603-0.136,1.994C993.905,24.937,993.696,26.34,994.018,27.163z M1026.438,27.163H994.3
		c-0.306-0.654-0.137-1.883-0.127-2.514c0.006-0.402-0.099-1.85,0.146-2.443h32.174c-0.189,0.612-0.119,1.603-0.136,1.994
		C1026.326,24.937,1026.117,26.34,1026.438,27.163z M1026.721,27.163c-0.307-0.654-0.137-1.883-0.127-2.514
		c0.006-0.402-0.098-1.85,0.145-2.443l32.121,0.215c-0.19,0.612-0.065,1.388-0.082,1.779c-0.03,0.736-0.172,4.06,0.149,4.883
		L1026.721,27.163z"/>
	<path fill="#D1AC5E" d="M1048.275,17.586c-0.15-2.466,7.818-13.842,7.955-16.3h11.808V0.474H0v0.81l11.29-0.091
		c-0.151,2.583-8.999,13.876-9.119,16.465C-0.696,17.403,0,17.493,0,17.493v0.662c0,0,6.917,0.485,10.749,0.827
		c5.084,0.454,14.005,0.641,16.938,0.642c0,0,7.811,0.364,15.525,0.494c8.117,0.136,16.111,0.318,18.446,0.498
		c2.388,0.184,12.355,0.363,22.297,0.5c9.938,0.137,19.827,0.228,22.009,0.228c2.174,0,13.338,0.091,24.908,0.091
		c5.786,0,11.673-0.022,16.593-0.091c4.921-0.068,8.866-0.181,10.796-0.364c3.779-0.361,13.861-0.544,23.566-0.68
		c4.854-0.067,9.618-0.124,13.464-0.187c3.849-0.063,6.77-0.13,7.971-0.223c2.343-0.181,12.423-0.635,22.629-1.088
		c10.21-0.454,20.55-0.907,23.462-1.089c2.877-0.181,13.959-0.271,24.299-0.317c5.171-0.022,10.162-0.034,13.859-0.039
		c1.849-0.004,3.374-0.005,4.438-0.006h1.662c0.002,0,0.475,0.002,1.366,0.007c6.681,0.038,36.77,0.216,65.537,0.492
		c14.383,0.138,28.436,0.301,39.065,0.482c5.315,0.091,9.774,0.187,12.99,0.287c1.607,0.05,2.904,0.102,3.84,0.152
		c0.467,0.026,0.845,0.053,1.123,0.078c0.273,0.024,0.466,0.057,0.494,0.067c0.291,0.087,0.759,0.14,1.451,0.19
		c2.06,0.147,5.969,0.202,10.752,0.202c14.555,0,37.161-0.509,39.42-0.509h64.606c2.379,0,34.98,0.129,62.213,0.155l0.242,0.001
		c3.082,0.002,6.097,0.004,8.988,0.004c7.142,0,13.538-0.01,18.408-0.035c4.872-0.025,8.204-0.065,9.258-0.127
		c1.158-0.068,4.008-0.099,7.867-0.099c8.176,0,20.913,0.134,32.008,0.303c5.547,0.085,10.685,0.179,14.637,0.27
		c3.947,0.091,6.725,0.181,7.504,0.252c0.379,0.034,0.911,0.049,1.582,0.049c4.723-0.001,16.251-0.75,23.784-1.314v0.025
		l347.29-0.118v-0.692L1048.275,17.586z M10.808,18.327c-0.763-0.068-7.558-0.573-8.308-0.641
		c0.124-2.599,8.968-13.901,9.119-16.494l23.672,0.279c-0.11,2.848-9.507,14.837-8.417,17.527
		C25.067,18.853,12.717,18.497,10.808,18.327z M27.23,19.027l-0.007-0.035c-1.119-2.682,8.286-14.675,8.397-17.521L59.4,1.342
		c0.375,1.301-6.839,11.624-6.744,12.907c0.126,1.707-1.65,3.649-1.64,5.361C49.309,19.577,29.995,19.247,27.23,19.027z
		 M51.346,19.617c-0.013-1.854,1.76-3.551,1.623-5.399c-0.085-1.147,7.085-11.692,6.771-12.876l20.812-0.056
		c0.136,1.798-6.62,12.576-6.697,14.383c-0.065,1.535-2.603,3.115-2.155,4.591C67.662,20.181,53.8,19.667,51.346,19.617z
		 M83.965,20.458c-1.155-0.017-9.407-0.143-11.914-0.191c-0.535-1.641,1.996-2.572,2.068-4.267
		c0.069-1.606,6.896-13.11,6.768-14.714l13.045,0.219l11.453-0.219c-0.154,1.762-7.216,12.594-7.179,14.297
		c0.028,1.302-1.614,4.69-1.513,5.027C93.977,20.582,85.101,20.474,83.965,20.458z M105.965,20.685
		c-1.161,0-4.528-0.025-8.927-0.071c0.775-1.161,1.603-4.004,1.582-5.197c-0.027-1.479,6.972-12.595,7.101-14.13l10.774-0.281
		l10.044,0.281c0.2,3.441-8.123,16.107-8.946,19.456C113.348,20.724,106.269,20.685,105.965,20.685z M117.929,20.744
		c0.801-3.361,9.135-16.014,8.938-19.458l20.257-0.125c-0.204,3.432-9.727,16.239-8.593,19.488
		C134.485,20.647,121.413,20.759,117.929,20.744z M158.2,20.323c-1.529,0.146-9.942,0.351-10.743,0.361
		c-2.482,0.035-8.58-0.034-8.58-0.034c-1.159-3.231,8.372-16.057,8.576-19.489l1.104-0.094l10.489,0.219h9.18
		c0.092,1.447-7.908,12.173-7.932,13.63c-0.03,1.872-1.12,3.46-0.773,5.304C159.025,20.253,158.58,20.287,158.2,20.323z
		 M174.571,19.754c-2.047,0.036-4.029,0.076-5.889,0.121c0,0-6.728,0.194-8.832,0.324c-0.361-1.828,0.695-3.433,0.773-5.283
		c0.062-1.455,8.042-12.183,7.938-13.63h9.004h11.06c-0.158,3.101-9.88,15.427-8.945,18.386
		C177.961,19.697,176.246,19.725,174.571,19.754z M203.213,19.233c-1.158,0.089-4.089,0.158-7.931,0.221
		c-0.437,0.007-10.478,0.143-15.259,0.213c-0.961-2.942,8.77-15.282,8.932-18.381h13.475h10.366
		c-0.133,1.466-6.759,11.259-6.711,12.672c0.029,0.871-2.45,4.343-1.62,5.194C203.935,19.183,203.512,19.21,203.213,19.233z
		 M225.863,18.145c-2.385,0.105-18.167,0.825-20.933,0.98l-0.061-0.073c-1.043-0.52,1.655-4.387,1.631-5.344
		c-0.03-1.185,6.525-11.188,6.633-12.422h27.906c-0.248,2.507-9.844,14.229-9.03,16.585
		C229.997,17.961,227.927,18.052,225.863,18.145z M249.313,17.056c-0.818,0.051-4.407,0.229-4.407,0.229
		c-3.25,0.156-7.726,0.356-12.554,0.571c-0.835-2.337,8.764-14.066,9.015-16.569h13.231h13.984
		c-0.068,2.165-9.279,13.386-9.147,15.551C254.666,16.889,250.858,16.959,249.313,17.056z M273.766,16.736c0,0-9.862,0.053-14,0.097
		c-0.132-2.164,9.079-13.383,9.147-15.547h13.27h11.314c-0.246,2.123-9.53,13.452-8.713,15.416
		C281.551,16.709,277.715,16.72,273.766,16.736z M293.617,16.692h-0.004c-0.025,0-3.482,0-8.471,0.01
		c-0.866-1.932,8.432-13.292,8.683-15.416h31.304c-0.224,2.155-9.051,13.408-8.757,15.549
		C309.028,16.785,293.617,16.692,293.617,16.692z M316.701,16.837c-0.295-2.135,8.526-13.396,8.756-15.551h17.645
		c-0.142,2.211-8.938,13.502-8.554,15.682C328.149,16.918,322.096,16.874,316.701,16.837z M334.881,16.97
		c-0.387-2.174,8.399-13.473,8.546-15.684h14.993c0.158,0.896-7.11,11.189-7.432,11.982s-0.793,2.479-0.528,3.83
		C345.162,17.053,339.919,17.01,334.881,16.97z M350.796,17.103c-0.25-1.193,0.287-2.687,0.495-3.479s7.686-11.288,7.476-12.338
		h13.665c-0.014,2.298-9.523,13.834-8.657,15.937C359.472,17.181,355.118,17.14,350.796,17.103z M364.141,17.227
		c-0.925-2.068,8.597-13.64,8.618-15.94h17.735c0.118,1.047-8.279,9.918-8.557,11.432s-0.667,3.351-0.607,4.697
		C375.846,17.348,370.043,17.285,364.141,17.227z M394.006,17.585c-3.837-0.058-7.991-0.113-12.345-0.166
		c-0.021-0.451,0.161-4.042,1.214-5.545c2.653-3.781,7.562-9.453,7.75-9.75s0.167-0.375,0.167-0.838h15.473
		c0.207,2.401-9.282,13.891-8.797,16.284l0.049,0.069C396.379,17.621,395.209,17.603,394.006,17.585z M397.716,17.643l0.07-0.16
		c-0.479-2.363,8.993-13.822,8.803-16.196h13.06c0.138,0.926-6.217,10.454-6.398,11.651s-1.727,3.401-1.388,5.002
		C408.318,17.836,403.46,17.736,397.716,17.643z M430.231,18.651c-3.184,0-5.982-0.024-8.093-0.084
		c-1.056-0.029-1.94-0.068-2.612-0.115c-0.667-0.047-1.141-0.111-1.303-0.164c-0.156-0.046-0.358-0.068-0.687-0.099
		c-0.931-0.083-2.766-0.162-5.33-0.239c-0.287-1.3,1.139-3.462,1.42-4.95s6.54-10.476,6.35-11.714h19.557
		c-0.214,2.742-9.225,14.761-8.467,17.364C430.787,18.65,430.504,18.651,430.231,18.651z M431.408,18.65
		c-0.771-2.59,8.24-14.62,8.455-17.364h23.533c-0.416,2.656-9.219,14.465-8.808,17.11C447.238,18.517,438.504,18.638,431.408,18.65z
		 M454.918,18.391c-0.414-2.634,8.386-14.454,8.812-17.104h14.094c0.117,2.607-8.34,14.268-8.831,16.862
		C466.972,18.175,461.53,18.282,454.918,18.391z M469.651,18.143c-0.082,0-0.195,0.001-0.327,0.002
		c0.466-2.597,8.941-14.25,8.829-16.858h12.871c-0.063,2.604-8.96,14.374-8.173,16.856H469.651z M483.194,18.143
		c-0.804-2.482,8.096-14.247,8.159-16.856h16.8c0.739,2.368-9.457,14.419-9.287,16.856H483.194z M499.196,18.143
		c-0.176-2.462,9.987-14.445,9.301-16.856h13.38c0.095,2.608-8.564,14.25-8.425,16.856H499.196z M513.782,18.143
		c-0.139-2.606,8.521-14.248,8.425-16.856h14.687c0.113,0.636,0.544,1.4,0.544,1.807c0,0.303-4.515,7.48-6.781,11.906
		c-0.781,1.526-1.379,2.631-1.318,3.144H513.782z M534.258,18.143h-4.589c-0.146-1.254,8.183-14.31,8.07-15.055
		s-0.407-1.188-0.518-1.802h14.42c-0.317,2.598-9.447,14.303-8.979,16.883C537.996,18.153,534.93,18.143,534.258,18.143z
		 M542.993,18.169c-0.478-2.573,8.652-14.288,8.974-16.883h18.56c0.228,2.623-9.066,14.311-8.925,16.94
		C554.312,18.206,547.831,18.186,542.993,18.169z M561.932,18.228c-0.143-2.63,9.151-14.317,8.924-16.941h18.222
		c-0.156,2.627-9.644,14.49-8.872,16.986C573.897,18.26,567.672,18.244,561.932,18.228z M596.246,18.298
		c-5.125-0.005-10.434-0.014-15.695-0.024c-0.796-2.481,8.697-14.36,8.856-16.987h15.337
		C604.577,3.94,595.498,15.738,596.246,18.298z M605.701,18.303c-2.93,0-5.986-0.002-9.112-0.004
		c-0.764-2.558,8.316-14.356,8.485-17.013h19.224c-0.048,0.753-0.847,1.293-0.86,1.994c-0.036,1.871-8.15,13.154-7.832,15.015
		C612.544,18.301,609.214,18.303,605.701,18.303z M633.327,18.143c-1.009,0.06-4.356,0.1-9.222,0.125
		c-2.383,0.013-5.135,0.021-8.158,0.027c-0.116-1.279,8.7-14.963,8.672-17.009h18.698c0.074,2.555-9.965,14.608-8.685,16.809
		C634.089,18.107,633.647,18.124,633.327,18.143z M641.234,18.042c-2.602,0-4.737,0.014-6.223,0.044
		c-1.366-2.13,8.668-14.229,8.622-16.8h13.243c-0.051,2.573-9.541,14.393-8.688,16.78C645.65,18.051,643.295,18.042,641.234,18.042z
		 M648.538,18.068c-0.884-2.369,8.612-14.205,8.666-16.782h16.62c0.24,2.649-7.965,14.282-8.012,16.954
		C659.843,18.163,653.801,18.102,648.538,18.068z M666.143,18.244c0.047-2.676,8.251-14.309,8.012-16.958h20.205
		c-0.076,2.752-8.748,14.567-8.348,17.287C680.574,18.457,673.432,18.34,666.143,18.244z M705.356,18.605
		c-3.446,0.186-6.489,0.311-8.392,0.31c-0.66,0-1.182-0.016-1.522-0.046c-0.836-0.075-3.592-0.163-7.55-0.255
		c-0.496-0.012-1.018-0.022-1.549-0.034c-0.4-2.72,8.27-14.539,8.346-17.294h19.47c0.01,1.319-8.795,11.688-8.754,13.015
		C705.449,15.734,705.101,17.186,705.356,18.605z M721.182,17.586v-0.02c-0.084,0.007-0.178,0.013-0.263,0.02h-0.17v0.013
		c-4.371,0.328-10.096,0.719-15.063,0.989c-0.243-1.248-0.02-2.581,0.04-3.835c0.071-1.483,8.783-11.995,8.765-13.467h24.598
		c0.043,1.096-9.155,10.361-9.129,11.464c0.031,1.322,0.195,3.515,0.188,4.836H721.182z M730.397,17.586
		c0.013-1.497-0.132-2.983-0.167-4.481c-0.021-0.932,9.112-10.9,9.089-11.818h21.343c0.008,2.424-8.629,13.878-8.536,16.3H730.397z
		 M752.376,17.586c-0.093-2.422,8.544-13.876,8.536-16.3h28.068C788.126,3,783.717,10.704,781.542,15
		c-0.646,1.275-1.467,2.082-1.287,2.586H752.376z M780.623,17.586l8.71-16.3h13.206c-1.08,2.714-7.58,13.88-8.468,16.3H780.623z
		 M794.402,17.586l8.471-16.3h17.748c-0.309,1.65-2.934,4.963-7.434,13.65c-0.974,1.717-1.403,1.976-1.323,2.649H794.402z
		 M812.198,17.586c0,0,8.614-15.368,8.766-16.3c0.005,0.182,17.635,0,17.635,0c-1.061,2.547-6.895,12.13-8.581,16.3H812.198z
		 M830.366,17.586c0,0,8.29-15.368,8.571-16.3c2.188,0.588,26.596,0,26.596,0c0.007,2.427-9,13.905-8.559,16.3H830.366z
		 M857.208,17.586c0.003-0.015,0.013-0.026,0.01-0.044c-0.439-2.38,8.571-13.845,8.565-16.256h21.639
		c-0.359,2.399-9.428,13.92-8.947,16.3H857.208z M878.709,17.586c0.003-0.015,0.013-0.026,0.009-0.044
		c-0.479-2.36,8.593-13.875,8.954-16.256h25.234c-0.124,2.464-8.105,13.819-7.955,16.3H878.709z M905.201,17.586
		c-0.15-2.466,7.818-13.842,7.955-16.3h23.596c-0.124,2.464-8.105,13.819-7.955,16.3H905.201z M929.047,17.586
		c-0.15-2.466,7.818-13.842,7.955-16.3h23.596c-0.124,2.464-8.105,13.819-7.955,16.3H929.047z M952.893,17.586
		c-0.15-2.466,7.818-13.842,7.955-16.3h23.596c-0.124,2.464-8.105,13.819-7.955,16.3H952.893z M976.738,17.586
		c-0.15-2.466,7.818-13.842,7.955-16.3h23.596c-0.124,2.464-8.105,13.819-7.955,16.3H976.738z M1000.584,17.586
		c-0.15-2.466,7.818-13.842,7.955-16.3h23.596c-0.124,2.464-8.105,13.819-7.955,16.3H1000.584z M1024.43,17.586
		c-0.15-2.466,7.818-13.842,7.955-16.3h23.596c-0.124,2.464-8.105,13.819-7.955,16.3H1024.43z"/>
</g>
</svg>
