<svg xmlns="http://www.w3.org/2000/svg" xmlns:xlink="http://www.w3.org/1999/xlink" version="1.1" id="Stars" x="0px" y="0px" width="150px" height="150px" viewBox="290.036 49.112 150 150" enable-background="new 290.036 49.112 150 150" xml:space="preserve">
<g id="Lightest_5_" opacity="0.42">
	<path id="path11324_3_" fill="#F4F4F4" d="M381.554 182.79c0-0.695-0.558-1.24-1.243-1.24c-0.687 0-1.246 0.544-1.246 1.2 c0 0.7 0.6 1.2 1.2 1.242C380.996 184 381.6 183.5 381.6 182.79z"/>
	<path id="path11636_3_" fill="#F4F4F4" d="M318.119 175.597c0-1.152-0.929-2.088-2.073-2.088c-1.144 0-2.073 0.936-2.073 2.1 c0 1.2 0.9 2.1 2.1 2.09C317.19 177.7 318.1 176.8 318.1 175.597z"/>
	<path id="path9300_8_" fill="#F4F4F4" d="M417.071 113.396c-1.148 0-2.08 0.933-2.08 2.083c0 1.1 0.9 2.1 2.1 2.1 c1.146 0 2.079-0.934 2.079-2.082C419.15 114.3 418.2 113.4 417.1 113.396z"/>
	<path id="path9300_3_" fill="#F4F4F4" d="M401.683 167.285c1.154 0 2.089-0.931 2.089-2.073c0-1.143-0.935-2.074-2.089-2.074 c-1.153 0-2.089 0.931-2.089 2.074C399.594 166.4 400.5 167.3 401.7 167.285z"/>
</g>
<g id="Lighter_8_" opacity="0.36">
	<path id="path10820_2_" fill="#F4F4F4" d="M361.484 55.949c0 1.2 0.9 2.1 2.1 2.086c1.145 0 2.072-0.935 2.072-2.086 c0-1.154-0.927-2.089-2.072-2.089C362.414 53.9 361.5 54.8 361.5 55.949z"/>
	<path id="path11756_3_" fill="#F4F4F4" d="M409.716 152.333c0-0.695-0.559-1.24-1.245-1.24c-0.686 0-1.242 0.544-1.242 1.2 c0 0.7 0.6 1.2 1.2 1.241C409.157 153.6 409.7 153 409.7 152.333z"/>
	<path id="path8700_8_" fill="#F4F4F4" d="M320.15 142.337c-0.693 0-1.236 0.562-1.236 1.25s0.542 1.2 1.2 1.2 c0.695 0 1.236-0.559 1.236-1.248S320.845 142.3 320.1 142.337z"/>
	<path id="path8724_4_" fill="#F4F4F4" d="M389.827 65.238c0 0.7 0.6 1.2 1.2 1.234c0.691 0 1.25-0.542 1.25-1.234 c0-0.694-0.559-1.235-1.25-1.235C390.387 64 389.8 64.5 389.8 65.238z"/>
</g>
<g id="Light_8_" opacity="0.3">
	<path id="path9916_3_" fill="#F4F4F4" d="M292.989 82.662c0 1.2 0.9 2.1 2.1 2.089c1.146 0 2.071-0.934 2.071-2.089 c0-1.152-0.926-2.087-2.071-2.087C293.917 80.6 293 81.5 293 82.662z"/>
	<path id="path10548_4_" fill="#F4F4F4" d="M339.975 75.06c0 1.2 0.9 2.1 2.1 2.087c1.144 0 2.074-0.936 2.074-2.087 c0-1.154-0.93-2.089-2.074-2.089C340.902 73 340 73.9 340 75.06z"/>
	<path id="path9916_5_" fill="#F4F4F4" d="M385.779 108.278c0-1.157-0.928-2.087-2.073-2.087c-1.142 0-2.073 0.931-2.073 2.1 c0 1.2 0.9 2.1 2.1 2.087C384.851 110.4 385.8 109.4 385.8 108.278z"/>
</g>
<g id="Medium_12_" opacity="0.24">
	<path id="path9116_4_" fill="#F4F4F4" d="M313.112 61.715c0 1.2 0.9 2.1 2.1 2.088c1.145 0 2.076-0.934 2.076-2.088 c0-1.153-0.931-2.089-2.076-2.089C314.043 59.6 313.1 60.6 313.1 61.715z"/>
	<path id="path8868_2_" fill="#F4F4F4" d="M406.577 80.423c0 0.7 0.6 1.2 1.2 1.24c0.688 0 1.245-0.545 1.245-1.24 c0-0.696-0.557-1.241-1.245-1.241C407.132 79.2 406.6 79.7 406.6 80.423z"/>
	<path id="path9116_5_" fill="#F4F4F4" d="M358.505 164.061c0 1.2 0.9 2.1 2.1 2.089c1.144 0 2.074-0.936 2.074-2.089 c0-1.152-0.931-2.088-2.074-2.088C359.434 162 358.5 162.9 358.5 164.061z"/>
	<path id="path9644_5_" fill="#F4F4F4" d="M397.781 98.926c0-0.696-0.558-1.239-1.243-1.239c-0.688 0-1.244 0.543-1.244 1.2 c0 0.7 0.6 1.2 1.2 1.242C397.223 100.2 397.8 99.6 397.8 98.926z"/>
	<path id="path9116_7_" fill="#F4F4F4" d="M356.261 121.006c0-1.154-0.93-2.086-2.074-2.086c-1.143 0-2.074 0.933-2.074 2.1 s0.931 2.1 2.1 2.091C355.331 123.1 356.3 122.2 356.3 121.006z"/>
	<path id="path8868_8_" fill="#F4F4F4" d="M336.851 161.831c-0.694 0-1.233 0.56-1.233 1.249s0.54 1.2 1.2 1.2 c0.694 0 1.235-0.562 1.235-1.25S337.545 161.8 336.9 161.831z"/>
	<path id="path8972_4_" fill="#F4F4F4" d="M306.94 108.806c-1.15 0-2.082 0.933-2.082 2.083c0 1.1 0.9 2.1 2.1 2.1 c1.148 0 2.076-0.937 2.076-2.083C309.016 109.7 308.1 108.8 306.9 108.806z"/>
</g>
<g id="Dark_2_" opacity="0.18">
	<path id="path8844_4_" fill="#F4F4F4" d="M331.929 76.902c0 0.7 0.6 1.2 1.2 1.24c0.685 0 1.241-0.544 1.241-1.24 c0-0.697-0.556-1.24-1.241-1.24C332.484 75.7 331.9 76.2 331.9 76.902z"/>
	<path id="path8844_5_" fill="#F4F4F4" d="M352.417 82.599c0 0.7 0.6 1.2 1.2 1.24c0.684 0 1.242-0.542 1.242-1.24 c0-0.697-0.558-1.241-1.242-1.241C352.974 81.4 352.4 81.9 352.4 82.599z"/>
	<path id="path11332_3_" fill="#F4F4F4" d="M434.374 141.456c0-1.154-0.93-2.09-2.074-2.09c-1.142 0-2.072 0.936-2.072 2.1 c0 1.2 0.9 2.1 2.1 2.088C433.444 143.5 434.4 142.6 434.4 141.456z"/>
	<path id="path11356_3_" fill="#F4F4F4" d="M384.548 143.63c0-1.153-0.928-2.089-2.072-2.089c-1.146 0-2.074 0.936-2.074 2.1 c0 1.2 0.9 2.1 2.1 2.089C383.621 145.7 384.5 144.8 384.5 143.63z"/>
	<path id="path11348_3_" fill="#F4F4F4" d="M421.376 191.494c0-1.153-0.928-2.09-2.074-2.09c-1.143 0-2.072 0.937-2.072 2.1 c0 1.2 0.9 2.1 2.1 2.088C420.448 193.6 421.4 192.6 421.4 191.494z"/>
	<path id="path11572_6_" fill="#F4F4F4" d="M433.543 126.226c0-0.696-0.557-1.24-1.244-1.24c-0.687 0-1.243 0.544-1.243 1.2 c0 0.7 0.6 1.2 1.2 1.24C432.987 127.5 433.5 126.9 433.5 126.226z"/>
	<path id="path11572_5_" fill="#F4F4F4" d="M348.603 190.557c0.695 0 1.235-0.56 1.235-1.247c0-0.689-0.54-1.249-1.235-1.249 c-0.693 0-1.234 0.56-1.234 1.249C347.368 190 347.9 190.6 348.6 190.557z"/>
	<path id="path8844_7_" fill="#F4F4F4" d="M338.341 111.287c0-0.695-0.558-1.238-1.245-1.238c-0.684 0-1.242 0.543-1.242 1.2 c0 0.7 0.6 1.2 1.2 1.242C337.783 112.5 338.3 112 338.3 111.287z"/>
	<path id="path8844_12_" fill="#F4F4F4" d="M315.471 93.581c-0.692 0-1.234 0.56-1.234 1.25c0 0.7 0.5 1.2 1.2 1.2 c0.694 0 1.234-0.559 1.234-1.249C316.706 94.1 316.2 93.6 315.5 93.581z"/>
	<path id="path9924_4_" fill="#F4F4F4" d="M431.468 56.32c0 0.7 0.6 1.2 1.2 1.234c0.69 0 1.249-0.539 1.249-1.234 c0-0.693-0.559-1.234-1.249-1.234C432.026 55.1 431.5 55.6 431.5 56.32z"/>
	<path id="path9476_4_" fill="#F4F4F4" d="M322.602 125.153c-1.149 0-2.078 0.932-2.078 2.081c0 1.1 0.9 2.1 2.1 2.1 c1.148 0 2.081-0.934 2.081-2.082C324.683 126.1 323.8 125.2 322.6 125.153z"/>
	<path id="path8844_1_" fill="#F4F4F4" d="M366.841 138.037c0-0.695-0.558-1.238-1.246-1.238c-0.684 0-1.242 0.543-1.242 1.2 c0 0.7 0.6 1.2 1.2 1.242C366.283 139.3 366.8 138.7 366.8 138.037z"/>
</g>
<g id="Darker_13_" opacity="0.12">
	<path id="path10620_4_" fill="#F4F4F4" d="M409.142 71.177c0 1.2 0.9 2.1 2.1 2.087c1.144 0 2.074-0.934 2.074-2.087 c0-1.154-0.931-2.088-2.074-2.088C410.07 69.1 409.1 70 409.1 71.177z"/>
	<path id="path9220_2_" fill="#F4F4F4" d="M426.979 79.64c0 0.7 0.6 1.2 1.2 1.24c0.687 0 1.243-0.543 1.243-1.24 c0-0.696-0.557-1.241-1.243-1.241C427.537 78.4 427 78.9 427 79.64z"/>
	<path id="path11820_3_" fill="#F4F4F4" d="M423.111 142.808c0-0.696-0.557-1.24-1.243-1.24c-0.688 0-1.244 0.544-1.244 1.2 c0 0.7 0.6 1.2 1.2 1.24C422.555 144 423.1 143.5 423.1 142.808z"/>
	<path id="path11708_3_" fill="#F4F4F4" d="M360.289 179.793c0-0.696-0.555-1.241-1.243-1.241c-0.687 0-1.245 0.545-1.245 1.2 s0.559 1.2 1.2 1.238C359.733 181 360.3 180.5 360.3 179.793z"/>
	<path id="path9860_5_" fill="#F4F4F4" d="M416.482 92.375c0-1.15-0.928-2.088-2.072-2.088c-1.144 0-2.072 0.938-2.072 2.1 c0 1.2 0.9 2.1 2.1 2.089C415.554 94.5 416.5 93.5 416.5 92.375z"/>
	<path id="path10116_5_" fill="#F4F4F4" d="M432.563 104.423c0-1.153-0.928-2.089-2.072-2.089c-1.145 0-2.072 0.936-2.072 2.1 c0 1.2 0.9 2.1 2.1 2.089C431.636 106.5 432.6 105.6 432.6 104.423z"/>
	<path id="path9220_8_" fill="#F4F4F4" d="M334.685 174.885c-0.692 0-1.234 0.558-1.234 1.249c0 0.7 0.5 1.2 1.2 1.2 c0.694 0 1.235-0.559 1.235-1.249C335.92 175.4 335.4 174.9 334.7 174.885z"/>
	<path id="path8764_4_" fill="#F4F4F4" d="M407.536 56.32c0 0.7 0.6 1.2 1.2 1.234c0.688 0 1.248-0.539 1.248-1.234 c0-0.693-0.559-1.234-1.248-1.234C408.096 55.1 407.5 55.6 407.5 56.32z"/>
</g>
<g id="Darkest_10_" opacity="0.06">
	<path id="path9956_3_" fill="#F4F4F4" d="M301.234 78.718c0 0.7 0.6 1.2 1.2 1.24c0.686 0 1.243-0.545 1.243-1.24 c0-0.698-0.557-1.242-1.243-1.242C301.791 77.5 301.2 78 301.2 78.718z"/>
	<path id="path10668_4_" fill="#F4F4F4" d="M342.817 64.649c0 0.7 0.6 1.2 1.2 1.241s1.244-0.543 1.244-1.241 c0-0.695-0.558-1.239-1.244-1.239S342.817 64 342.8 64.649z"/>
	<path id="path10716_2_" fill="#F4F4F4" d="M338.484 55.949c0 0.7 0.6 1.2 1.2 1.241c0.688 0 1.245-0.544 1.245-1.241 s-0.558-1.242-1.245-1.242C339.042 54.7 338.5 55.3 338.5 55.949z"/>
	<path id="path10660_4_" fill="#F4F4F4" d="M379.643 73.353c0 0.7 0.6 1.2 1.2 1.239c0.688 0 1.244-0.542 1.244-1.239 c0-0.694-0.556-1.239-1.244-1.239C380.201 72.1 379.6 72.7 379.6 73.353z"/>
	<path id="path11172_3_" fill="#F4F4F4" d="M372.888 189.319c0-0.696-0.556-1.241-1.245-1.241c-0.685 0-1.243 0.545-1.243 1.2 c0 0.7 0.6 1.2 1.2 1.238C372.332 190.6 372.9 190 372.9 189.319z"/>
	<path id="path11212_3_" fill="#F4F4F4" d="M394.55 174.088c0-0.695-0.557-1.239-1.242-1.239c-0.688 0-1.246 0.543-1.246 1.2 c0 0.7 0.6 1.2 1.2 1.243C393.993 175.3 394.6 174.8 394.6 174.088z"/>
	<path id="path11668_3_" fill="#F4F4F4" d="M399.714 184.967c0-1.154-0.931-2.089-2.073-2.089c-1.146 0-2.074 0.935-2.074 2.1 c0 1.2 0.9 2.1 2.1 2.088C398.783 187.1 399.7 186.1 399.7 184.967z"/>
	<path id="path11308_3_" fill="#F4F4F4" d="M431.377 180.617c0-0.699-0.556-1.241-1.242-1.241c-0.688 0-1.246 0.542-1.246 1.2 c0 0.7 0.6 1.2 1.2 1.239C430.821 181.9 431.4 181.3 431.4 180.617z"/>
	<path id="path11620_6_" fill="#F4F4F4" d="M401.879 117.524c0-1.155-0.929-2.088-2.073-2.088c-1.143 0-2.073 0.933-2.073 2.1 c0 1.2 0.9 2.1 2.1 2.087C400.95 119.6 401.9 118.7 401.9 117.524z"/>
	<path id="path11620_5_" fill="#F4F4F4" d="M343.47 139.667c1.148 0 2.08-0.932 2.08-2.081c0-1.151-0.932-2.085-2.08-2.085 c-1.148 0-2.08 0.935-2.08 2.085C341.39 138.7 342.3 139.7 343.5 139.667z"/>
	<path id="path9956_5_" fill="#F4F4F4" d="M376.284 112.224c0-0.696-0.557-1.241-1.243-1.241c-0.687 0-1.244 0.545-1.244 1.2 s0.557 1.2 1.2 1.242C375.728 113.5 376.3 112.9 376.3 112.224z"/>
	<path id="path8780_4_" fill="#F4F4F4" d="M302.189 146.601c-0.692 0-1.234 0.561-1.234 1.25c0 0.7 0.5 1.2 1.2 1.2 c0.695 0 1.235-0.56 1.235-1.249C303.425 147.2 302.9 146.6 302.2 146.601z"/>
	<path id="path9108_4_" fill="#F4F4F4" d="M313.022 191.456c-1.149 0-2.08 0.933-2.08 2.081c0 1.1 0.9 2.1 2.1 2.1 c1.147 0 2.078-0.934 2.078-2.084C315.101 192.4 314.2 191.5 313 191.456z"/>
	<path id="path9372_4_" fill="#F4F4F4" d="M300.024 166.182c-0.693 0-1.235 0.561-1.235 1.249c0 0.7 0.5 1.3 1.2 1.3 c0.692 0 1.234-0.561 1.234-1.251C301.259 166.7 300.7 166.2 300 166.182z"/>
	<path id="path9956_1_" fill="#F4F4F4" d="M360.815 100.224c0-0.696-0.557-1.241-1.243-1.241c-0.687 0-1.244 0.545-1.244 1.2 s0.557 1.2 1.2 1.242C360.259 101.5 360.8 100.9 360.8 100.224z"/>
	<path id="path9956_2_" fill="#F4F4F4" d="M337.284 154.974c0-0.696-0.557-1.241-1.243-1.241c-0.687 0-1.244 0.545-1.244 1.2 s0.557 1.2 1.2 1.242C336.728 156.2 337.3 155.7 337.3 154.974z"/>
	<path id="path9956_4_" fill="#F4F4F4" d="M390.534 128.724c0-0.696-0.557-1.242-1.243-1.242c-0.687 0-1.244 0.545-1.244 1.2 s0.557 1.2 1.2 1.242C389.978 130 390.5 129.4 390.5 128.724z"/>
	<path id="path9956_6_" fill="#F4F4F4" d="M390.784 160.474c0-0.696-0.557-1.242-1.242-1.242c-0.688 0-1.245 0.545-1.245 1.2 s0.557 1.2 1.2 1.242C390.228 161.7 390.8 161.2 390.8 160.474z"/>
	<path id="path9956_7_" fill="#F4F4F4" d="M316.376 113.645c0-0.696-0.557-1.241-1.243-1.241c-0.687 0-1.244 0.545-1.244 1.2 s0.557 1.2 1.2 1.242C315.82 114.9 316.4 114.3 316.4 113.645z"/>
	<path id="path10668_1_" fill="#F4F4F4" d="M372.067 95.149c0 0.7 0.6 1.2 1.2 1.241s1.244-0.543 1.244-1.241 c0-0.695-0.558-1.239-1.244-1.239S372.067 94.5 372.1 95.149z"/>
	<path id="path10716_1_" fill="#F4F4F4" d="M374.234 83.699c0 0.7 0.6 1.2 1.2 1.241c0.688 0 1.245-0.544 1.245-1.241 s-0.558-1.242-1.245-1.242C374.792 82.5 374.2 83 374.2 83.699z"/>
	<path id="path10660_1_" fill="#F4F4F4" d="M423.643 159.353c0 0.7 0.6 1.2 1.2 1.239c0.688 0 1.244-0.542 1.244-1.239 c0-0.694-0.556-1.239-1.244-1.239C424.201 158.1 423.6 158.7 423.6 159.353z"/>
	<path id="path10716_3_" fill="#F4F4F4" d="M418.234 169.699c0 0.7 0.6 1.2 1.2 1.241c0.688 0 1.245-0.544 1.245-1.241 s-0.558-1.242-1.245-1.242C418.792 168.5 418.2 169 418.2 169.699z"/>
	<path id="path10716_4_" fill="#F4F4F4" d="M298.984 60.699c0 0.7 0.6 1.2 1.2 1.241c0.688 0 1.245-0.544 1.245-1.241 s-0.558-1.242-1.245-1.242C299.542 59.5 299 60 299 60.699z"/>
	<path id="path10716_5_" fill="#F4F4F4" d="M405.234 137.949c0 0.7 0.6 1.2 1.2 1.241c0.688 0 1.245-0.544 1.245-1.241 s-0.558-1.242-1.245-1.242C405.792 136.7 405.2 137.3 405.2 137.949z"/>
</g>
</svg>
