<?xml version="1.0" encoding="utf-8"?>
<!-- Generator: Adobe Illustrator 16.0.0, SVG Export Plug-In . SVG Version: 6.00 Build 0)  -->
<!DOCTYPE svg PUBLIC "-//W3C//DTD SVG 1.1//EN" "http://www.w3.org/Graphics/SVG/1.1/DTD/svg11.dtd">
<svg version="1.1" id="Layer_1" xmlns="http://www.w3.org/2000/svg" xmlns:xlink="http://www.w3.org/1999/xlink" x="0px" y="0px"
	 width="232.516px" height="247.357px" viewBox="0 0 232.516 247.357" enable-background="new 0 0 232.516 247.357"
	 xml:space="preserve">
<g id="Moon_2_">
	<g id="Stars_1_">
		<g>
			<g>
				<g>
					<path fill="#CBDAE2" d="M89.326,65.111c-0.032-0.108-0.818-1.603-2.249-4.684l-0.054-0.116l0.068-0.118
						c0.583-1.004,1.613-2.709,2.854-4.667c0.035,0.055,0.132,0.208,0.229,0.36c-0.699,0.049-2.014,0.14-3.401,0.237
						c-0.638,0.07-1.286,0.142-2.051,0.227l-0.059,0.006l-0.039-0.045c-1.085-1.251-2.296-2.649-3.583-4.134
						c0.064-0.017,0.147-0.038,0.229-0.059c-0.335,1.663-0.708,3.511-1.082,5.362l-0.018,0.087l-0.084,0.036
						c-0.038,0.016-0.08,0.035-0.122,0.053c-1.675,0.725-3.351,1.45-4.898,2.12c0.01-0.156,0.018-0.291,0.026-0.425
						c1.699,0.941,3.274,1.813,4.785,2.651l0.142,0.079l0.017,0.171c0.086,0.884,0.163,1.664,0.238,2.432
						c0.072,1.156,0.136,2.29,0.162,3.024c-0.23-0.091-0.338-0.134-0.447-0.177c1.746-1.496,3.114-2.625,4.217-3.493l0.012-0.009
						l0.012,0.003c0.668,0.185,1.059,0.306,1.428,0.422c2.544,0.596,3.772,0.744,3.973,0.512c-0.17-0.039-0.088,0.35-0.316,0.618
						c-0.109-0.186-1.561-0.556-3.842-0.876c-0.334-0.085-0.686-0.174-1.323-0.336c0.071-0.018,0.143-0.037,0.292-0.075
						c-1.022,0.869-2.327,1.977-4.172,3.543l-0.239,0.203l-0.011-0.302c-0.024-0.698-0.104-1.947-0.209-3.254
						c-0.061-0.687-0.124-1.386-0.196-2.202c0.017,0.026,0.033,0.052,0.053,0.083c-1.482-0.851-3.042-1.745-4.745-2.722
						l-0.185-0.106l0.197-0.082c1.584-0.657,3.32-1.377,5.053-2.096c-0.016,0.02-0.032,0.039-0.051,0.062l0.006-0.03
						c0.383-1.854,0.766-3.701,1.103-5.326l0.041-0.196l0.132,0.151c1.311,1.501,2.539,2.889,3.633,4.091
						c-0.061-0.024-0.121-0.048-0.159-0.063c0.78-0.107,1.422-0.195,2.051-0.282c1.221-0.115,2.393-0.225,3.387-0.318l0.392-0.037
						l-0.204,0.333c-1.099,1.802-2.081,3.413-2.849,4.67c0.004-0.064,0.008-0.129,0.011-0.174c1.388,3.034,2.271,4.819,2.392,4.911
						C89.58,65.352,89.32,65.275,89.326,65.111z"/>
				</g>
			</g>
		</g>
		<g>
			<g>
				<g>
					<path fill="#CBDAE2" d="M128.806,48.883c-0.003-0.113-0.381-1.759-0.977-5.103l-0.022-0.126l0.097-0.097
						c0.819-0.822,2.252-2.207,3.952-3.782c0.02,0.062,0.074,0.234,0.129,0.406c-0.688-0.132-1.982-0.38-3.349-0.641
						c-0.634-0.095-1.278-0.191-2.04-0.305l-0.059-0.009l-0.026-0.054c-0.729-1.487-1.542-3.147-2.406-4.912
						c0.067,0,0.152,0.001,0.237,0.001c-0.75,1.521-1.583,3.213-2.418,4.907l-0.039,0.08l-0.091,0.014
						c-0.041,0.006-0.087,0.013-0.132,0.02c-1.805,0.272-3.609,0.544-5.277,0.796c0.05-0.148,0.092-0.276,0.135-0.404
						c1.401,1.344,2.701,2.591,3.948,3.787l0.117,0.113l-0.027,0.17c-0.144,0.877-0.27,1.651-0.394,2.413
						c-0.226,1.136-0.453,2.248-0.617,2.964c-0.199-0.147-0.293-0.216-0.387-0.285c2.07-1,3.682-1.742,4.971-2.299l0.014-0.006
						l0.01,0.006c0.599,0.35,0.945,0.566,1.272,0.773c2.307,1.227,3.457,1.684,3.71,1.511c-0.154-0.082-0.175,0.315-0.463,0.517
						c-0.059-0.207-1.367-0.937-3.491-1.83c-0.301-0.167-0.618-0.343-1.192-0.663c0.073,0,0.147,0.001,0.301,0.002
						c-1.21,0.578-2.754,1.315-4.939,2.359l-0.282,0.135l0.066-0.294c0.155-0.681,0.398-1.909,0.63-3.199
						c0.117-0.68,0.235-1.372,0.374-2.179c0.009,0.029,0.019,0.059,0.029,0.094c-1.215-1.202-2.493-2.465-3.89-3.845l-0.152-0.15
						l0.211-0.029c1.699-0.229,3.562-0.481,5.421-0.733c-0.021,0.015-0.042,0.029-0.066,0.047l0.014-0.027
						c0.846-1.694,1.688-3.383,2.429-4.868l0.089-0.179l0.089,0.18c0.883,1.787,1.716,3.442,2.466,4.884
						c-0.053-0.039-0.105-0.078-0.138-0.102c0.781,0.096,1.424,0.175,2.054,0.252c1.21,0.202,2.371,0.395,3.355,0.56l0.388,0.064
						l-0.281,0.27c-1.523,1.461-2.885,2.767-3.948,3.787c0.021-0.062,0.041-0.124,0.056-0.166c0.565,3.288,0.963,5.239,1.057,5.359
						C128.99,49.181,128.758,49.04,128.806,48.883z"/>
				</g>
			</g>
		</g>
		<g display="none">
			<polygon display="inline" fill="#FFFFFF" points="136.399,91.371 130.39,90.074 125.915,94.289 125.292,88.174 119.902,85.22 
				125.524,82.737 126.667,76.698 130.765,81.278 136.864,80.499 133.773,85.812 			"/>
			<g display="inline">
				<g>
					<path fill="#CBDAE2" d="M136.159,91.14c-0.039-0.12-0.944-1.788-2.613-5.22l-0.057-0.116l0.066-0.119
						c0.635-1.139,1.756-3.077,3.104-5.306c0.035,0.054,0.136,0.205,0.235,0.355c-0.784,0.073-2.259,0.211-3.814,0.356
						c-0.715,0.093-1.441,0.188-2.3,0.299l-0.059,0.008l-0.04-0.044c-1.245-1.382-2.635-2.926-4.112-4.567
						c0.064-0.018,0.146-0.041,0.229-0.063c-0.343,1.875-0.723,3.959-1.104,6.046l-0.016,0.088l-0.084,0.038
						c-0.042,0.019-0.089,0.041-0.136,0.062c-1.867,0.848-3.734,1.697-5.46,2.481c0.007-0.157,0.013-0.291,0.019-0.425
						c1.927,1.023,3.714,1.973,5.428,2.883l0.145,0.076l0.02,0.17c0.114,0.992,0.216,1.867,0.315,2.728
						c0.099,1.297,0.195,2.569,0.258,3.392c-0.231-0.086-0.341-0.127-0.45-0.168c1.923-1.725,3.429-3.03,4.642-4.038l0.011-0.01
						l0.013,0.003c0.755,0.19,1.197,0.313,1.615,0.433c2.87,0.614,4.25,0.77,4.464,0.538c-0.192-0.041-0.083,0.351-0.324,0.62
						c-0.131-0.187-1.77-0.568-4.335-0.903c-0.378-0.087-0.774-0.179-1.494-0.346c0.071-0.02,0.143-0.04,0.291-0.081
						c-1.127,1.001-2.563,2.279-4.596,4.087l-0.233,0.208l-0.018-0.301c-0.048-0.783-0.166-2.184-0.313-3.65
						c-0.083-0.771-0.168-1.555-0.267-2.469c0.017,0.026,0.034,0.052,0.055,0.083c-1.685-0.923-3.455-1.895-5.389-2.956
						l-0.188-0.103l0.195-0.085c1.765-0.773,3.699-1.621,5.629-2.466c-0.016,0.02-0.031,0.04-0.051,0.063l0.007-0.034
						c0.392-2.091,0.782-4.175,1.125-6.008l0.037-0.196l0.135,0.149c1.503,1.659,2.91,3.193,4.161,4.523
						c-0.062-0.023-0.123-0.046-0.161-0.06c0.875-0.135,1.595-0.246,2.301-0.354c1.368-0.157,2.683-0.308,3.796-0.437l0.392-0.045
						l-0.197,0.338c-1.195,2.048-2.264,3.879-3.098,5.309c0.003-0.065,0.006-0.13,0.008-0.174c1.622,3.379,2.646,5.37,2.775,5.473
						C136.434,91.412,136.164,91.32,136.159,91.14z"/>
				</g>
			</g>
		</g>
		<g>
			<g>
				<g>
					<path fill="#CBDAE2" d="M111.861,92.646c0-0.113-0.326-1.771-0.815-5.132l-0.019-0.127l0.1-0.093
						c0.846-0.795,2.321-2.134,4.07-3.655c0.018,0.062,0.067,0.236,0.116,0.41c-0.684-0.153-1.97-0.442-3.327-0.747
						c-0.63-0.115-1.271-0.232-2.029-0.37l-0.058-0.01l-0.024-0.054c-0.682-1.509-1.443-3.195-2.251-4.986
						c0.066,0.002,0.152,0.006,0.237,0.009c-0.797,1.497-1.683,3.162-2.57,4.829l-0.042,0.079l-0.091,0.01
						c-0.042,0.005-0.088,0.01-0.134,0.016c-1.812,0.215-3.625,0.43-5.299,0.628c0.054-0.147,0.101-0.273,0.146-0.399
						c1.359,1.388,2.619,2.675,3.827,3.91l0.114,0.116l-0.033,0.169c-0.17,0.872-0.32,1.641-0.468,2.398
						c-0.262,1.128-0.524,2.233-0.71,2.943c-0.194-0.153-0.286-0.225-0.378-0.297c2.101-0.934,3.735-1.625,5.04-2.14l0.014-0.006
						l0.01,0.006c0.588,0.369,0.928,0.596,1.248,0.814c2.267,1.299,3.401,1.792,3.661,1.627c-0.152-0.086-0.185,0.31-0.479,0.502
						c-0.052-0.208-1.336-0.979-3.431-1.938c-0.296-0.177-0.607-0.363-1.172-0.701c0.074,0.002,0.148,0.005,0.301,0.011
						c-1.228,0.54-2.794,1.228-5.011,2.202l-0.287,0.126l0.076-0.292c0.176-0.676,0.458-1.896,0.73-3.178
						c0.138-0.676,0.278-1.364,0.442-2.166c0.008,0.03,0.017,0.06,0.027,0.095c-1.177-1.24-2.415-2.543-3.768-3.967l-0.146-0.155
						l0.212-0.021c1.706-0.176,3.576-0.369,5.442-0.562c-0.021,0.014-0.042,0.028-0.067,0.045l0.014-0.025
						c0.898-1.667,1.793-3.328,2.581-4.79l0.095-0.176l0.083,0.183c0.826,1.813,1.606,3.495,2.311,4.959
						c-0.051-0.04-0.103-0.081-0.135-0.106c0.778,0.121,1.417,0.22,2.044,0.317c1.203,0.24,2.357,0.47,3.336,0.666l0.385,0.077
						l-0.29,0.261c-1.568,1.412-2.971,2.674-4.065,3.659c0.022-0.061,0.045-0.122,0.06-0.164c0.462,3.304,0.797,5.268,0.887,5.39
						C112.035,92.95,111.809,92.801,111.861,92.646z"/>
				</g>
			</g>
		</g>
		<g>
			<g>
				<g>
					<path fill="#CBDAE2" d="M105.168,129.683c-0.05-0.101-1.081-1.439-3.018-4.229l-0.073-0.105l0.047-0.128
						c0.402-1.089,1.125-2.945,2.013-5.087c0.044,0.048,0.165,0.182,0.287,0.315c-0.681,0.167-1.96,0.483-3.311,0.816
						c-0.616,0.178-1.242,0.36-1.981,0.574l-0.057,0.017l-0.046-0.038c-1.283-1.047-2.715-2.217-4.237-3.459
						c0.061-0.028,0.139-0.063,0.216-0.098c-0.046,1.695-0.098,3.581-0.15,5.468l-0.002,0.089l-0.077,0.05
						c-0.035,0.022-0.073,0.048-0.112,0.073c-1.526,1.001-3.053,2.002-4.463,2.927c-0.017-0.156-0.032-0.29-0.047-0.423
						c1.835,0.637,3.537,1.227,5.169,1.793l0.154,0.053l0.045,0.166c0.236,0.856,0.445,1.611,0.65,2.354
						c0.269,1.127,0.526,2.233,0.677,2.952c-0.243-0.051-0.357-0.074-0.471-0.098c1.464-1.772,2.62-3.119,3.558-4.163l0.01-0.011
						l0.012,0.001c0.69,0.067,1.095,0.119,1.478,0.171c2.608,0.151,3.844,0.086,4.002-0.177c-0.174-0.01-0.027,0.36-0.205,0.663
						c-0.139-0.164-1.633-0.28-3.936-0.204c-0.344-0.026-0.705-0.054-1.36-0.104c0.067-0.03,0.135-0.061,0.275-0.124
						c-0.859,1.031-1.955,2.346-3.504,4.205l-0.201,0.241l-0.062-0.296c-0.144-0.684-0.435-1.9-0.763-3.17
						c-0.178-0.666-0.358-1.344-0.57-2.135c0.021,0.023,0.042,0.046,0.066,0.073c-1.606-0.584-3.295-1.199-5.141-1.87l-0.201-0.073
						l0.18-0.114c1.448-0.918,3.036-1.925,4.62-2.929c-0.013,0.022-0.025,0.044-0.04,0.07l0.001-0.03
						c0.062-1.892,0.123-3.778,0.176-5.438l0.006-0.2l0.156,0.126c1.548,1.255,2.996,2.412,4.279,3.409
						c-0.064-0.013-0.128-0.026-0.168-0.035c0.75-0.239,1.367-0.436,1.972-0.629c1.183-0.322,2.319-0.631,3.282-0.893l0.379-0.104
						l-0.143,0.363c-0.774,1.963-1.467,3.719-2.007,5.089c-0.007-0.064-0.014-0.129-0.019-0.173c1.886,2.75,3.062,4.359,3.197,4.428
						C105.459,129.877,105.19,129.845,105.168,129.683z"/>
				</g>
			</g>
		</g>
		<g>
			<g>
				<g>
					<path fill="#CBDAE2" d="M156.919,112.995c0.036-0.106,0.255-1.782,0.861-5.124l0.022-0.126l0.124-0.057
						c1.055-0.485,2.88-1.285,5.023-2.17c-0.003,0.065-0.012,0.245-0.021,0.425c-0.6-0.363-1.727-1.045-2.916-1.765
						c-0.562-0.31-1.133-0.625-1.809-0.998l-0.051-0.028l-0.006-0.059c-0.166-1.647-0.35-3.488-0.546-5.443
						c0.062,0.024,0.143,0.054,0.222,0.084c-1.232,1.165-2.603,2.46-3.975,3.758l-0.064,0.061l-0.09-0.019
						c-0.04-0.008-0.085-0.018-0.13-0.027c-1.787-0.373-3.575-0.746-5.226-1.09c0.098-0.123,0.182-0.227,0.266-0.332
						c0.847,1.749,1.631,3.37,2.383,4.925l0.071,0.146l-0.085,0.15c-0.439,0.772-0.826,1.453-1.207,2.123
						c-0.607,0.986-1.208,1.95-1.61,2.565c-0.136-0.207-0.2-0.304-0.264-0.402c2.288-0.217,4.057-0.351,5.459-0.424l0.015-0.001
						l0.008,0.009c0.439,0.537,0.688,0.86,0.924,1.168c1.735,1.953,2.654,2.781,2.952,2.708c-0.116-0.13-0.273,0.235-0.614,0.323
						c0.018-0.214-0.955-1.354-2.636-2.93c-0.225-0.262-0.46-0.537-0.889-1.037c0.069,0.026,0.139,0.053,0.282,0.107
						c-1.336,0.121-3.04,0.274-5.45,0.491l-0.312,0.028l0.165-0.253c0.382-0.585,1.037-1.651,1.704-2.781
						c0.346-0.596,0.697-1.203,1.107-1.911c-0.001,0.031-0.003,0.062-0.005,0.099c-0.721-1.55-1.479-3.179-2.308-4.959l-0.09-0.193
						l0.207,0.046c1.674,0.376,3.508,0.788,5.338,1.199c-0.024,0.007-0.049,0.013-0.078,0.021l0.023-0.021
						c1.382-1.293,2.759-2.583,3.971-3.717l0.146-0.136l0.021,0.2c0.205,1.981,0.409,3.824,0.61,5.437
						c-0.036-0.055-0.071-0.109-0.094-0.144c0.7,0.362,1.275,0.66,1.84,0.952c1.063,0.609,2.085,1.195,2.95,1.691l0.342,0.196
						l-0.358,0.155c-1.938,0.839-3.669,1.589-5.021,2.175c0.04-0.05,0.081-0.101,0.109-0.136c-0.614,3.279-0.921,5.248-0.875,5.392
						C156.988,113.338,156.821,113.125,156.919,112.995z"/>
				</g>
			</g>
		</g>
		<g>
			<g>
				<g>
					<path fill="#CBDAE2" d="M149.424,137.34c-0.024-0.109-0.708-1.654-1.927-4.824l-0.046-0.12l0.076-0.113
						c0.648-0.962,1.792-2.593,3.162-4.462c0.031,0.057,0.117,0.216,0.204,0.374c-0.701,0.001-2.021,0.004-3.411,0.007
						c-0.641,0.026-1.291,0.055-2.06,0.087l-0.059,0.003l-0.036-0.048c-0.998-1.321-2.112-2.797-3.296-4.366
						c0.065-0.012,0.149-0.028,0.232-0.043c-0.446,1.636-0.944,3.454-1.441,5.276l-0.023,0.085l-0.087,0.031
						c-0.04,0.014-0.084,0.029-0.128,0.045c-1.72,0.609-3.439,1.219-5.028,1.782c0.02-0.155,0.037-0.289,0.055-0.422
						c1.631,1.054,3.145,2.031,4.596,2.969l0.136,0.088l0.006,0.172c0.026,0.889,0.05,1.672,0.072,2.443
						c-0.006,1.158-0.019,2.293-0.042,3.027c-0.224-0.106-0.329-0.156-0.435-0.207c1.843-1.374,3.284-2.408,4.444-3.2l0.012-0.008
						l0.012,0.004c0.654,0.229,1.035,0.376,1.396,0.518c2.497,0.766,3.713,0.996,3.929,0.778c-0.166-0.051-0.111,0.343-0.356,0.596
						c-0.096-0.192-1.52-0.66-3.774-1.134c-0.328-0.106-0.672-0.219-1.297-0.424c0.072-0.014,0.146-0.026,0.297-0.055
						c-1.079,0.797-2.455,1.814-4.402,3.253l-0.252,0.187l0.01-0.302c0.022-0.698,0.027-1.949,0.011-3.26
						c-0.015-0.69-0.03-1.392-0.048-2.21c0.015,0.026,0.029,0.054,0.047,0.087c-1.421-0.949-2.916-1.947-4.549-3.038l-0.178-0.118
						l0.201-0.068c1.625-0.548,3.406-1.148,5.184-1.748c-0.018,0.019-0.035,0.037-0.056,0.059l0.008-0.027
						c0.509-1.824,1.016-3.643,1.461-5.242l0.054-0.192l0.121,0.16c1.206,1.586,2.339,3.054,3.349,4.327
						c-0.059-0.028-0.118-0.057-0.154-0.074c0.785-0.054,1.431-0.099,2.063-0.142c1.226-0.032,2.403-0.062,3.401-0.088l0.393-0.011
						l-0.225,0.319c-1.218,1.723-2.307,3.263-3.157,4.466c0.009-0.064,0.017-0.129,0.022-0.174c1.18,3.121,1.94,4.962,2.055,5.062
						C149.661,137.598,149.408,137.503,149.424,137.34z"/>
				</g>
			</g>
		</g>
		<g>
			<g>
				<g>
					<path fill="#CBDAE2" d="M171.141,140.834c0.073-0.085,0.904-1.556,2.72-4.426l0.068-0.107l0.136-0.007
						c1.16-0.054,3.151-0.111,5.47-0.128c-0.027,0.059-0.104,0.223-0.179,0.387c-0.42-0.562-1.209-1.618-2.042-2.732
						c-0.403-0.497-0.814-1.003-1.3-1.601l-0.037-0.045l0.017-0.058c0.464-1.589,0.983-3.364,1.534-5.25
						c0.049,0.045,0.111,0.103,0.174,0.161c-1.579,0.618-3.335,1.306-5.094,1.993l-0.083,0.033l-0.076-0.052
						c-0.034-0.023-0.072-0.049-0.111-0.074c-1.516-1.017-3.032-2.032-4.434-2.971c0.137-0.077,0.255-0.142,0.372-0.208
						c0.129,1.938,0.248,3.734,0.362,5.458l0.011,0.162l-0.135,0.106c-0.697,0.552-1.312,1.038-1.916,1.518
						c-0.933,0.687-1.852,1.354-2.455,1.773c-0.048-0.243-0.07-0.357-0.094-0.472c2.203,0.657,3.894,1.196,5.221,1.654l0.014,0.005
						l0.004,0.011c0.206,0.662,0.316,1.056,0.418,1.429c0.877,2.461,1.418,3.573,1.722,3.616c-0.059-0.164-0.342,0.115-0.69,0.069
						c0.097-0.191-0.378-1.612-1.345-3.704c-0.11-0.326-0.226-0.67-0.435-1.293c0.055,0.05,0.108,0.101,0.222,0.205
						c-1.284-0.39-2.921-0.886-5.238-1.589l-0.3-0.091l0.248-0.173c0.573-0.398,1.581-1.142,2.622-1.938
						c0.545-0.424,1.099-0.855,1.745-1.357c-0.014,0.027-0.026,0.056-0.042,0.09c-0.088-1.707-0.18-3.502-0.28-5.463l-0.011-0.213
						l0.175,0.121c1.41,0.977,2.955,2.046,4.497,3.114c-0.024-0.003-0.05-0.007-0.08-0.01l0.028-0.011
						c1.766-0.682,3.527-1.36,5.076-1.958l0.186-0.072l-0.055,0.193c-0.553,1.914-1.055,3.698-1.473,5.27
						c-0.013-0.064-0.025-0.129-0.033-0.169c0.513,0.598,0.934,1.09,1.347,1.571c0.758,0.965,1.484,1.891,2.102,2.676l0.243,0.31
						l-0.391,0.009c-2.11,0.053-3.996,0.099-5.469,0.135c0.057-0.031,0.113-0.063,0.152-0.085c-1.799,2.809-2.821,4.518-2.833,4.669
						C171.076,141.178,171,140.918,171.141,140.834z"/>
				</g>
			</g>
		</g>
		<g>
			<g>
				<g>
					<path fill="#CBDAE2" d="M112.694,160.808c0.015-0.111-0.098-1.797-0.156-5.193l-0.002-0.128l0.111-0.08
						c0.939-0.682,2.572-1.823,4.5-3.11c0.01,0.064,0.036,0.243,0.063,0.422c-0.659-0.239-1.898-0.688-3.206-1.163
						c-0.611-0.193-1.232-0.391-1.966-0.623l-0.056-0.019l-0.017-0.057c-0.484-1.583-1.025-3.352-1.6-5.23
						c0.066,0.012,0.15,0.025,0.234,0.039c-0.981,1.384-2.071,2.922-3.163,4.463l-0.051,0.072l-0.092-0.001
						c-0.042,0-0.089-0.001-0.135-0.001c-1.825-0.017-3.65-0.033-5.335-0.049c0.072-0.139,0.134-0.258,0.196-0.378
						c1.172,1.55,2.258,2.986,3.3,4.364l0.098,0.13l-0.054,0.163c-0.28,0.844-0.526,1.588-0.769,2.32
						c-0.402,1.086-0.804,2.148-1.078,2.829c-0.174-0.177-0.255-0.26-0.337-0.343c2.202-0.66,3.911-1.138,5.271-1.484l0.015-0.004
						l0.009,0.008c0.536,0.44,0.844,0.709,1.134,0.965c2.084,1.576,3.147,2.209,3.424,2.078c-0.139-0.104-0.223,0.284-0.539,0.438
						c-0.024-0.214-1.201-1.141-3.157-2.358c-0.271-0.213-0.557-0.437-1.074-0.843c0.073,0.012,0.146,0.023,0.298,0.049
						c-1.287,0.38-2.928,0.864-5.25,1.55l-0.301,0.088l0.113-0.279c0.26-0.648,0.694-1.822,1.127-3.06
						c0.223-0.653,0.449-1.317,0.713-2.093c0.005,0.031,0.009,0.062,0.015,0.098c-1.01-1.379-2.073-2.828-3.234-4.412l-0.126-0.173
						l0.213,0.006c1.714,0.041,3.594,0.087,5.469,0.133c-0.023,0.012-0.046,0.022-0.072,0.036l0.016-0.022
						c1.103-1.54,2.202-3.074,3.169-4.424l0.116-0.163l0.06,0.192c0.589,1.903,1.15,3.669,1.663,5.211
						c-0.046-0.046-0.092-0.093-0.121-0.122c0.757,0.219,1.379,0.397,1.989,0.573c1.162,0.391,2.278,0.766,3.225,1.083l0.373,0.125
						l-0.321,0.223c-1.734,1.201-3.285,2.276-4.496,3.115c0.03-0.058,0.06-0.115,0.08-0.155c0.039,3.336,0.123,5.326,0.196,5.459
						C112.828,161.131,112.623,160.955,112.694,160.808z"/>
				</g>
			</g>
		</g>
		<g>
			<g>
				<g>
					<path fill="#CBDAE2" d="M49.177,98.963c0.011-0.112-0.157-1.794-0.326-5.187l-0.006-0.128l0.108-0.083
						c0.917-0.712,2.512-1.905,4.397-3.254c0.012,0.064,0.044,0.241,0.077,0.419c-0.667-0.217-1.919-0.626-3.241-1.057
						c-0.617-0.174-1.245-0.351-1.986-0.56l-0.057-0.016l-0.019-0.057c-0.536-1.567-1.133-3.317-1.769-5.176
						c0.066,0.009,0.151,0.02,0.235,0.031c-0.936,1.415-1.976,2.988-3.017,4.563l-0.049,0.074l-0.092,0.002
						c-0.042,0.001-0.087,0.002-0.133,0.003c-1.825,0.043-3.65,0.086-5.336,0.125c0.067-0.141,0.126-0.263,0.184-0.384
						c1.221,1.51,2.353,2.911,3.439,4.254l0.103,0.126l-0.049,0.165c-0.252,0.853-0.474,1.604-0.693,2.344
						c-0.367,1.098-0.733,2.173-0.985,2.863c-0.179-0.17-0.264-0.251-0.348-0.332c2.18-0.731,3.872-1.264,5.22-1.654l0.014-0.004
						l0.01,0.007c0.55,0.422,0.867,0.681,1.165,0.928c2.134,1.507,3.217,2.105,3.49,1.965c-0.143-0.1-0.213,0.291-0.525,0.455
						c-0.031-0.212-1.237-1.101-3.232-2.254c-0.278-0.205-0.57-0.419-1.101-0.808c0.073,0.01,0.146,0.02,0.299,0.04
						c-1.273,0.421-2.898,0.958-5.196,1.718l-0.298,0.098l0.104-0.284c0.239-0.656,0.634-1.843,1.027-3.094
						c0.201-0.66,0.406-1.331,0.644-2.114c0.006,0.03,0.011,0.061,0.018,0.097c-1.054-1.345-2.163-2.759-3.375-4.304l-0.131-0.168
						l0.213-0.002c1.715-0.014,3.594-0.029,5.47-0.045c-0.022,0.012-0.045,0.024-0.071,0.039l0.017-0.026
						c1.052-1.574,2.1-3.143,3.022-4.522l0.111-0.167l0.066,0.19c0.65,1.883,1.268,3.631,1.831,5.156
						c-0.047-0.045-0.095-0.09-0.124-0.118c0.764,0.193,1.391,0.353,2.007,0.509c1.174,0.352,2.302,0.69,3.258,0.977l0.376,0.113
						l-0.313,0.232c-1.695,1.257-3.21,2.381-4.393,3.259c0.028-0.059,0.056-0.117,0.075-0.157c0.147,3.333,0.296,5.32,0.374,5.45
						C49.322,99.282,49.11,99.113,49.177,98.963z"/>
				</g>
			</g>
		</g>
		<g>
			<g>
				<g>
					<path fill="#CBDAE2" d="M30.168,76.61c0.05-0.102,0.482-1.735,1.512-4.971l0.039-0.122l0.13-0.041
						c1.108-0.346,3.02-0.904,5.258-1.507c-0.011,0.064-0.043,0.242-0.075,0.419c-0.548-0.437-1.579-1.259-2.666-2.126
						c-0.517-0.379-1.042-0.765-1.664-1.22l-0.048-0.035l0.002-0.06c0.047-1.655,0.101-3.504,0.157-5.468
						c0.059,0.032,0.134,0.072,0.209,0.112c-1.372,0.998-2.897,2.107-4.425,3.218l-0.072,0.053l-0.087-0.031
						c-0.039-0.013-0.082-0.028-0.125-0.043c-1.724-0.6-3.448-1.199-5.042-1.753c0.113-0.108,0.21-0.202,0.307-0.295
						c0.615,1.842,1.185,3.551,1.732,5.19l0.051,0.154l-0.104,0.138c-0.534,0.709-1.005,1.335-1.469,1.951
						c-0.729,0.901-1.449,1.78-1.927,2.338c-0.108-0.223-0.159-0.328-0.21-0.433c2.297,0.079,4.068,0.172,5.467,0.279l0.015,0.001
						l0.006,0.01c0.367,0.588,0.573,0.941,0.766,1.276c1.472,2.159,2.277,3.098,2.582,3.063c-0.099-0.144-0.302,0.198-0.65,0.242
						c0.045-0.21-0.774-1.465-2.239-3.243c-0.189-0.289-0.387-0.592-0.748-1.142c0.065,0.035,0.13,0.07,0.266,0.142
						c-1.34-0.052-3.049-0.118-5.467-0.211l-0.313-0.012l0.196-0.229c0.454-0.532,1.241-1.505,2.047-2.54
						c0.419-0.547,0.846-1.104,1.343-1.753c-0.005,0.03-0.011,0.061-0.018,0.097c-0.517-1.629-1.06-3.343-1.653-5.215l-0.065-0.203
						l0.2,0.073c1.611,0.588,3.376,1.232,5.138,1.875c-0.025,0.004-0.05,0.007-0.08,0.011l0.026-0.018
						c1.537-1.106,3.068-2.208,4.415-3.177l0.163-0.117l-0.005,0.201c-0.05,1.992-0.084,3.845-0.091,5.47
						c-0.029-0.059-0.057-0.118-0.075-0.154c0.647,0.449,1.18,0.818,1.702,1.18c0.977,0.741,1.914,1.453,2.709,2.056l0.313,0.238
						l-0.375,0.108c-2.028,0.584-3.841,1.106-5.257,1.513c0.047-0.045,0.094-0.09,0.126-0.121c-1.03,3.173-1.587,5.086-1.56,5.235
						C30.192,76.959,30.054,76.726,30.168,76.61z"/>
				</g>
			</g>
		</g>
		<g>
			<g>
				<g>
					<path fill="#CBDAE2" d="M150,182.276c-0.031-0.108-0.818-1.604-2.248-4.684l-0.055-0.116l0.069-0.118
						c0.582-1.004,1.612-2.709,2.854-4.667c0.035,0.055,0.132,0.207,0.229,0.359c-0.699,0.049-2.014,0.14-3.4,0.236
						c-0.638,0.07-1.286,0.143-2.053,0.227l-0.058,0.007l-0.039-0.045c-1.085-1.251-2.296-2.648-3.583-4.134
						c0.065-0.017,0.147-0.037,0.23-0.059c-0.336,1.663-0.709,3.511-1.083,5.362l-0.018,0.087l-0.084,0.037
						c-0.038,0.016-0.079,0.033-0.121,0.052c-1.676,0.725-3.352,1.449-4.899,2.119c0.01-0.156,0.018-0.29,0.026-0.425
						c1.699,0.941,3.274,1.814,4.785,2.651l0.142,0.079l0.018,0.171c0.086,0.884,0.162,1.663,0.237,2.431
						c0.072,1.156,0.136,2.29,0.162,3.024c-0.23-0.091-0.339-0.134-0.447-0.177c1.745-1.495,3.114-2.624,4.217-3.491l0.012-0.01
						l0.012,0.003c0.668,0.186,1.059,0.306,1.427,0.423c2.544,0.596,3.772,0.743,3.973,0.511c-0.17-0.039-0.088,0.351-0.315,0.618
						c-0.108-0.185-1.561-0.556-3.842-0.875c-0.335-0.085-0.686-0.174-1.322-0.336c0.071-0.019,0.143-0.037,0.292-0.075
						c-1.022,0.868-2.327,1.976-4.172,3.543l-0.239,0.202l-0.011-0.302c-0.024-0.698-0.104-1.947-0.209-3.255
						c-0.062-0.686-0.124-1.385-0.197-2.199c0.017,0.026,0.033,0.052,0.054,0.083c-1.482-0.851-3.042-1.745-4.744-2.723
						l-0.186-0.106l0.197-0.081c1.584-0.657,3.319-1.377,5.052-2.095c-0.016,0.02-0.032,0.039-0.051,0.062l0.007-0.031
						c0.383-1.854,0.766-3.701,1.102-5.326l0.041-0.195l0.132,0.151c1.311,1.501,2.538,2.889,3.632,4.091
						c-0.061-0.024-0.121-0.048-0.159-0.063c0.78-0.107,1.423-0.195,2.052-0.281c1.221-0.115,2.393-0.225,3.386-0.317l0.392-0.037
						l-0.203,0.333c-1.099,1.802-2.081,3.413-2.849,4.671c0.004-0.065,0.008-0.13,0.011-0.175c1.388,3.034,2.271,4.819,2.392,4.911
						C150.253,182.518,149.994,182.44,150,182.276z"/>
				</g>
			</g>
		</g>
		<g id="FOM_3_" display="none">
			<polygon display="inline" fill="#FFFFFF" points="196.927,84.534 190.946,83.121 186.39,87.247 185.885,81.121 180.553,78.063 
				186.223,75.691 187.483,69.675 191.493,74.334 197.604,73.673 194.411,78.925 			"/>
			<g display="inline">
				<g>
					<path fill="#CBDAE2" d="M196.692,84.299c-0.037-0.121-0.909-1.807-2.511-5.271l-0.055-0.116l0.069-0.118
						c0.656-1.126,1.815-3.042,3.205-5.245c0.035,0.055,0.132,0.208,0.229,0.36c-0.785,0.058-2.262,0.167-3.82,0.282
						c-0.716,0.079-1.444,0.159-2.305,0.254l-0.058,0.006l-0.039-0.045c-1.219-1.407-2.579-2.977-4.025-4.646
						c0.065-0.017,0.147-0.038,0.23-0.059c-0.379,1.868-0.8,3.944-1.222,6.024l-0.018,0.087l-0.084,0.036
						c-0.043,0.018-0.09,0.039-0.137,0.059c-1.884,0.812-3.768,1.624-5.508,2.374c0.01-0.156,0.018-0.291,0.026-0.425
						c1.907,1.061,3.676,2.044,5.372,2.988l0.143,0.079l0.017,0.171c0.095,0.994,0.179,1.87,0.262,2.732
						c0.074,1.3,0.146,2.574,0.193,3.398c-0.23-0.091-0.339-0.134-0.447-0.177c1.956-1.687,3.486-2.963,4.718-3.947l0.012-0.009
						l0.012,0.003c0.751,0.205,1.19,0.337,1.605,0.464c2.858,0.669,4.234,0.853,4.453,0.625c-0.191-0.044-0.09,0.35-0.336,0.613
						c-0.127-0.189-1.759-0.603-4.316-0.987c-0.376-0.095-0.771-0.194-1.486-0.375c0.071-0.018,0.143-0.037,0.292-0.075
						c-1.146,0.979-2.606,2.229-4.673,3.997l-0.237,0.203l-0.013-0.302c-0.031-0.785-0.123-2.188-0.242-3.657
						c-0.068-0.771-0.139-1.557-0.219-2.473c0.016,0.026,0.032,0.052,0.053,0.083c-1.666-0.956-3.418-1.961-5.331-3.059
						l-0.186-0.106l0.197-0.082c1.779-0.739,3.729-1.548,5.677-2.356c-0.017,0.02-0.033,0.039-0.052,0.062l0.007-0.034
						c0.432-2.083,0.862-4.159,1.24-5.985l0.041-0.196l0.132,0.152c1.472,1.688,2.85,3.249,4.074,4.603
						c-0.061-0.024-0.121-0.048-0.159-0.063c0.877-0.118,1.598-0.214,2.305-0.309c1.372-0.131,2.688-0.256,3.805-0.363l0.393-0.037
						l-0.204,0.334c-1.234,2.024-2.338,3.834-3.2,5.247c0.004-0.064,0.008-0.129,0.011-0.174c1.557,3.41,2.54,5.42,2.668,5.526
						C196.961,84.576,196.694,84.479,196.692,84.299z"/>
				</g>
			</g>
		</g>
		<g id="FOM_2_" display="none">
			<polygon display="inline" fill="#FFFFFF" points="192.944,55.638 188.44,51.455 182.44,52.793 185.028,47.217 181.902,41.925 
				188.003,42.662 192.071,38.053 193.255,44.084 198.895,46.529 193.525,49.519 			"/>
			<g display="inline">
				<g>
					<path fill="#CBDAE2" d="M192.855,55.317c0.027-0.124,0.102-2.02,0.419-5.822l0.011-0.128l0.118-0.068
						c1.127-0.655,3.08-1.749,5.377-2.978c0.003,0.065,0.012,0.245,0.021,0.425c-0.711-0.337-2.05-0.972-3.462-1.642
						c-0.661-0.285-1.333-0.575-2.128-0.917l-0.054-0.023l-0.012-0.058c-0.364-1.825-0.771-3.862-1.204-6.027
						c0.064,0.018,0.146,0.04,0.229,0.062c-1.252,1.438-2.645,3.035-4.038,4.635l-0.059,0.067l-0.091-0.01
						c-0.047-0.005-0.099-0.011-0.15-0.017c-2.037-0.224-4.076-0.448-5.959-0.655c0.086-0.131,0.159-0.244,0.232-0.356
						c1.135,1.864,2.187,3.593,3.195,5.251l0.085,0.139l-0.07,0.156c-0.408,0.912-0.768,1.716-1.122,2.507
						c-0.578,1.166-1.145,2.309-1.511,3.048c-0.155-0.193-0.229-0.284-0.302-0.375c2.534-0.501,4.496-0.854,6.053-1.102l0.015-0.002
						l0.009,0.009c0.553,0.549,0.869,0.881,1.168,1.197c2.154,1.994,3.261,2.833,3.562,2.742c-0.145-0.132-0.25,0.26-0.595,0.368
						c-0.017-0.228-1.231-1.393-3.266-2.991c-0.28-0.268-0.574-0.549-1.108-1.06c0.071,0.019,0.143,0.039,0.291,0.079
						c-1.479,0.286-3.367,0.651-6.038,1.168l-0.307,0.06l0.139-0.269c0.359-0.698,0.973-1.962,1.595-3.298
						c0.322-0.705,0.65-1.423,1.032-2.26c0.002,0.031,0.003,0.062,0.005,0.099c-0.977-1.654-2.003-3.393-3.124-5.293l-0.108-0.184
						l0.211,0.026c1.912,0.237,4.008,0.496,6.1,0.755c-0.024,0.009-0.048,0.018-0.076,0.029l0.022-0.025
						c1.404-1.598,2.805-3.191,4.036-4.592l0.132-0.15l0.04,0.197c0.445,2.194,0.872,4.232,1.268,6.015
						c-0.041-0.051-0.081-0.102-0.107-0.134c0.82,0.331,1.495,0.603,2.156,0.87c1.258,0.564,2.465,1.105,3.488,1.564l0.358,0.161
						L198.99,46.7c-2.073,1.151-3.927,2.18-5.373,2.983c0.035-0.055,0.07-0.109,0.095-0.146c-0.33,3.733-0.468,5.967-0.409,6.122
						C192.953,55.692,192.768,55.475,192.855,55.317z"/>
				</g>
			</g>
		</g>
		<g id="_x3C_Path_x3E__1_">
			<g>
				<g>
					<path fill="#CBDAE2" d="M198.591,167.901c0.033-0.108,0.204-1.789,0.713-5.147l0.02-0.127l0.122-0.061
						c1.04-0.515,2.841-1.367,4.957-2.314c-0.001,0.064-0.004,0.245-0.008,0.426c-0.609-0.346-1.757-0.995-2.967-1.681
						c-0.57-0.294-1.149-0.592-1.835-0.944l-0.052-0.026l-0.008-0.06c-0.213-1.642-0.451-3.476-0.704-5.425
						c0.062,0.021,0.144,0.05,0.224,0.077c-1.198,1.201-2.529,2.537-3.863,3.874l-0.062,0.063l-0.091-0.017
						c-0.041-0.008-0.086-0.016-0.131-0.023c-1.797-0.321-3.595-0.643-5.256-0.939c0.095-0.125,0.176-0.232,0.257-0.34
						c0.897,1.723,1.729,3.32,2.526,4.854l0.075,0.144l-0.081,0.152c-0.416,0.785-0.783,1.477-1.145,2.158
						c-0.578,1.003-1.151,1.984-1.535,2.61c-0.142-0.203-0.209-0.299-0.275-0.394c2.281-0.284,4.045-0.47,5.444-0.584l0.015-0.001
						l0.008,0.009c0.455,0.523,0.714,0.84,0.957,1.141c1.791,1.902,2.733,2.704,3.029,2.622c-0.12-0.127-0.268,0.242-0.604,0.341
						c0.012-0.215-0.994-1.326-2.72-2.854c-0.231-0.255-0.475-0.523-0.917-1.011c0.069,0.024,0.14,0.049,0.285,0.099
						c-1.332,0.16-3.031,0.363-5.435,0.651l-0.312,0.037l0.158-0.258c0.365-0.596,0.989-1.681,1.623-2.829
						c0.328-0.606,0.662-1.224,1.052-1.942c-0.001,0.03-0.002,0.062-0.002,0.099c-0.767-1.528-1.572-3.135-2.453-4.891l-0.096-0.19
						l0.209,0.041c1.684,0.327,3.529,0.687,5.371,1.044c-0.024,0.008-0.049,0.016-0.077,0.024l0.021-0.021
						c1.344-1.334,2.683-2.664,3.86-3.833l0.143-0.141l0.026,0.198c0.263,1.976,0.521,3.811,0.77,5.417
						c-0.038-0.054-0.075-0.106-0.099-0.141c0.71,0.342,1.293,0.623,1.865,0.898c1.081,0.578,2.119,1.134,2.999,1.605l0.347,0.186
						l-0.354,0.165c-1.911,0.896-3.62,1.696-4.954,2.321c0.039-0.052,0.078-0.104,0.105-0.14c-0.52,3.296-0.77,5.272-0.719,5.415
						C198.67,168.242,198.497,168.034,198.591,167.901z"/>
				</g>
			</g>
		</g>
		<g>
			<g>
				<g>
					<path fill="#CBDAE2" d="M62.695,194.579c-0.031-0.108-0.818-1.604-2.249-4.685l-0.054-0.116l0.068-0.118
						c0.583-1.004,1.613-2.709,2.854-4.666c0.035,0.055,0.132,0.207,0.229,0.359c-0.699,0.049-2.014,0.14-3.401,0.236
						c-0.638,0.07-1.286,0.143-2.052,0.227l-0.059,0.007l-0.039-0.045c-1.085-1.251-2.296-2.648-3.583-4.134
						c0.064-0.017,0.147-0.037,0.229-0.059c-0.335,1.663-0.708,3.511-1.082,5.362l-0.018,0.087l-0.084,0.037
						c-0.038,0.016-0.08,0.034-0.121,0.052c-1.675,0.725-3.352,1.45-4.899,2.12c0.01-0.156,0.018-0.29,0.026-0.425
						c1.699,0.941,3.274,1.813,4.785,2.65l0.142,0.079l0.017,0.171c0.086,0.885,0.163,1.664,0.237,2.432
						c0.073,1.155,0.137,2.289,0.162,3.023c-0.23-0.091-0.338-0.134-0.447-0.177c1.746-1.495,3.114-2.624,4.217-3.491l0.012-0.01
						l0.012,0.003c0.668,0.186,1.059,0.306,1.428,0.423c2.544,0.596,3.772,0.743,3.973,0.511c-0.17-0.039-0.088,0.351-0.316,0.618
						c-0.109-0.185-1.561-0.556-3.842-0.875c-0.334-0.085-0.686-0.174-1.323-0.336c0.071-0.019,0.143-0.037,0.292-0.075
						c-1.022,0.868-2.327,1.976-4.172,3.543l-0.239,0.202l-0.011-0.302c-0.024-0.698-0.104-1.947-0.209-3.254
						c-0.061-0.687-0.124-1.386-0.196-2.2c0.017,0.026,0.033,0.052,0.053,0.083c-1.482-0.85-3.042-1.744-4.745-2.722l-0.185-0.106
						l0.197-0.081c1.584-0.657,3.32-1.377,5.053-2.096c-0.016,0.02-0.032,0.039-0.051,0.062l0.006-0.031
						c0.384-1.854,0.766-3.701,1.103-5.326l0.041-0.195l0.132,0.151c1.311,1.501,2.539,2.889,3.633,4.091
						c-0.061-0.024-0.121-0.048-0.159-0.063c0.781-0.107,1.422-0.195,2.052-0.281c1.221-0.115,2.393-0.225,3.386-0.317l0.392-0.037
						l-0.204,0.333c-1.099,1.802-2.081,3.412-2.849,4.67c0.004-0.065,0.008-0.13,0.011-0.175c1.388,3.035,2.271,4.82,2.392,4.912
						C62.949,194.82,62.689,194.743,62.695,194.579z"/>
				</g>
			</g>
		</g>
		<g>
			<g>
				<g>
					<path fill="#CBDAE2" d="M127.313,239.291c0.028-0.108,0.12-1.795,0.473-5.173l0.013-0.127l0.119-0.066
						c1.015-0.563,2.773-1.5,4.842-2.545c0.002,0.065,0.007,0.245,0.012,0.426c-0.625-0.316-1.802-0.912-3.042-1.541
						c-0.583-0.266-1.176-0.536-1.876-0.855l-0.054-0.024l-0.01-0.059c-0.29-1.631-0.614-3.451-0.959-5.386
						c0.064,0.02,0.146,0.043,0.229,0.067c-1.141,1.256-2.409,2.651-3.679,4.049l-0.061,0.066l-0.091-0.013
						c-0.041-0.005-0.087-0.012-0.133-0.018c-1.81-0.236-3.619-0.474-5.291-0.691c0.088-0.13,0.164-0.24,0.24-0.352
						c0.977,1.679,1.882,3.236,2.75,4.729l0.082,0.141l-0.074,0.156c-0.379,0.803-0.713,1.512-1.042,2.209
						c-0.531,1.029-1.057,2.036-1.411,2.68c-0.151-0.196-0.223-0.289-0.294-0.381c2.266-0.39,4.019-0.658,5.411-0.838l0.015-0.002
						l0.008,0.009c0.479,0.502,0.753,0.805,1.01,1.095c1.879,1.814,2.858,2.571,3.149,2.475c-0.126-0.12-0.256,0.255-0.588,0.369
						c0.001-0.215-1.056-1.277-2.851-2.721c-0.244-0.244-0.499-0.501-0.964-0.967c0.07,0.021,0.142,0.042,0.289,0.086
						c-1.322,0.221-3.01,0.504-5.397,0.903l-0.31,0.052l0.146-0.265c0.337-0.612,0.909-1.725,1.489-2.901
						c0.299-0.621,0.604-1.253,0.959-1.99c0.001,0.031,0.002,0.062,0.003,0.099c-0.837-1.49-1.717-3.058-2.679-4.77l-0.104-0.187
						l0.21,0.031c1.697,0.248,3.557,0.521,5.413,0.792c-0.024,0.009-0.049,0.017-0.076,0.027l0.02-0.021
						c1.28-1.396,2.557-2.786,3.679-4.01l0.136-0.147l0.035,0.198c0.355,1.96,0.699,3.781,1.022,5.373
						c-0.04-0.052-0.079-0.103-0.104-0.136c0.725,0.309,1.32,0.562,1.904,0.81c1.106,0.527,2.17,1.034,3.071,1.464l0.354,0.169
						l-0.345,0.182c-1.867,0.984-3.536,1.864-4.839,2.551c0.037-0.054,0.073-0.107,0.099-0.145
						c-0.364,3.315-0.522,5.302-0.466,5.441C127.408,239.629,127.224,239.429,127.313,239.291z"/>
				</g>
			</g>
		</g>
		<g>
			<g>
				<g>
					<path fill="#CBDAE2" d="M112.142,195.229c-0.031-0.108-0.818-1.604-2.249-4.685l-0.054-0.116l0.068-0.118
						c0.582-1.004,1.612-2.709,2.853-4.666c0.035,0.055,0.132,0.207,0.229,0.359c-0.699,0.049-2.014,0.14-3.401,0.236
						c-0.637,0.07-1.285,0.143-2.05,0.227l-0.059,0.007l-0.039-0.045c-1.085-1.251-2.296-2.648-3.583-4.134
						c0.064-0.017,0.147-0.037,0.229-0.059c-0.335,1.662-0.708,3.511-1.082,5.361l-0.018,0.087l-0.084,0.037
						c-0.038,0.016-0.081,0.034-0.123,0.053c-1.675,0.725-3.351,1.449-4.898,2.119c0.01-0.156,0.018-0.29,0.026-0.425
						c1.699,0.941,3.274,1.814,4.786,2.651l0.142,0.079l0.017,0.171c0.086,0.884,0.163,1.663,0.238,2.431
						c0.073,1.156,0.137,2.29,0.163,3.024c-0.23-0.091-0.338-0.134-0.447-0.177c1.745-1.495,3.113-2.624,4.216-3.491l0.012-0.01
						l0.012,0.003c0.668,0.186,1.059,0.306,1.428,0.423c2.544,0.596,3.772,0.743,3.973,0.511c-0.17-0.039-0.088,0.351-0.316,0.618
						c-0.109-0.185-1.561-0.556-3.842-0.875c-0.334-0.085-0.685-0.174-1.323-0.336c0.071-0.019,0.143-0.037,0.292-0.075
						c-1.022,0.868-2.326,1.976-4.171,3.543l-0.239,0.202l-0.011-0.302c-0.025-0.698-0.104-1.947-0.21-3.254
						c-0.062-0.687-0.124-1.386-0.197-2.2c0.017,0.026,0.033,0.052,0.053,0.083c-1.483-0.851-3.042-1.745-4.746-2.723l-0.185-0.106
						l0.197-0.081c1.584-0.657,3.321-1.377,5.054-2.096c-0.016,0.02-0.032,0.039-0.051,0.062l0.006-0.029
						c0.384-1.854,0.767-3.701,1.103-5.327l0.041-0.195l0.132,0.151c1.311,1.501,2.539,2.889,3.633,4.091
						c-0.061-0.024-0.121-0.048-0.159-0.063c0.78-0.107,1.421-0.195,2.05-0.281c1.221-0.114,2.393-0.225,3.387-0.317l0.392-0.037
						l-0.204,0.333c-1.099,1.802-2.081,3.412-2.848,4.67c0.004-0.065,0.008-0.13,0.011-0.175c1.388,3.035,2.271,4.82,2.392,4.912
						C112.396,195.471,112.136,195.394,112.142,195.229z"/>
				</g>
			</g>
		</g>
		<g>
			<g>
				<g>
					<path fill="#CBDAE2" d="M98.062,34.204c0.035-0.107,0.221-1.787,0.764-5.139l0.02-0.126l0.123-0.059
						c1.045-0.505,2.854-1.34,4.979-2.266c-0.002,0.065-0.007,0.245-0.012,0.426c-0.606-0.352-1.747-1.013-2.95-1.711
						c-0.567-0.299-1.144-0.603-1.826-0.962l-0.052-0.027l-0.007-0.059c-0.197-1.644-0.417-3.48-0.65-5.432
						c0.063,0.022,0.143,0.051,0.223,0.08c-1.209,1.189-2.555,2.511-3.902,3.835l-0.063,0.062l-0.09-0.018
						c-0.04-0.007-0.085-0.016-0.13-0.025c-1.793-0.339-3.588-0.678-5.245-0.991c0.096-0.124,0.178-0.23,0.26-0.337
						c0.879,1.731,1.694,3.337,2.476,4.878l0.074,0.145l-0.082,0.151c-0.424,0.781-0.798,1.469-1.167,2.147
						c-0.588,0.998-1.17,1.973-1.561,2.595c-0.14-0.204-0.206-0.301-0.271-0.397c2.284-0.261,4.05-0.429,5.45-0.529l0.015-0.001
						l0.008,0.009c0.45,0.528,0.706,0.847,0.946,1.15c1.773,1.919,2.708,2.729,3.004,2.65c-0.119-0.127-0.27,0.24-0.608,0.335
						c0.014-0.215-0.981-1.335-2.692-2.879c-0.229-0.258-0.47-0.528-0.908-1.02c0.069,0.025,0.139,0.05,0.284,0.102
						c-1.333,0.146-3.034,0.332-5.44,0.596l-0.312,0.034l0.16-0.256c0.371-0.592,1.005-1.67,1.65-2.812
						c0.334-0.603,0.674-1.217,1.071-1.933c-0.001,0.031-0.002,0.062-0.003,0.099c-0.75-1.536-1.54-3.15-2.402-4.914l-0.094-0.192
						l0.209,0.043c1.68,0.344,3.521,0.721,5.358,1.097c-0.024,0.007-0.049,0.015-0.078,0.023l0.022-0.021
						c1.356-1.32,2.709-2.636,3.898-3.794l0.144-0.139l0.024,0.199c0.244,1.978,0.483,3.815,0.715,5.424
						c-0.037-0.054-0.074-0.108-0.097-0.142c0.707,0.349,1.287,0.635,1.856,0.917c1.075,0.589,2.107,1.156,2.983,1.636l0.345,0.189
						l-0.355,0.162c-1.92,0.876-3.637,1.66-4.977,2.271c0.04-0.051,0.08-0.103,0.106-0.138c-0.551,3.29-0.82,5.264-0.771,5.407
						C98.137,34.546,97.966,34.336,98.062,34.204z"/>
				</g>
			</g>
		</g>
		<g id="OL_3_">
			<g>
				<g>
					<path fill="#CBDAE2" d="M217.436,138.909c0.025-0.109,0.08-1.798,0.358-5.183l0.011-0.128l0.118-0.069
						c1.002-0.585,2.739-1.558,4.786-2.647c0.003,0.065,0.012,0.246,0.021,0.426c-0.632-0.303-1.82-0.873-3.075-1.475
						c-0.588-0.254-1.188-0.512-1.895-0.815l-0.054-0.023l-0.012-0.059c-0.325-1.624-0.688-3.437-1.073-5.364
						c0.064,0.018,0.146,0.04,0.229,0.062c-1.114,1.28-2.352,2.703-3.592,4.128l-0.059,0.067l-0.091-0.01
						c-0.041-0.005-0.086-0.01-0.131-0.015c-1.814-0.197-3.63-0.395-5.307-0.577c0.086-0.131,0.159-0.243,0.232-0.356
						c1.013,1.657,1.951,3.194,2.852,4.668l0.085,0.139l-0.07,0.157c-0.361,0.812-0.68,1.527-0.994,2.232
						c-0.508,1.041-1.012,2.059-1.353,2.709c-0.155-0.192-0.229-0.283-0.302-0.374c2.257-0.439,4.004-0.745,5.392-0.955l0.015-0.002
						l0.009,0.009c0.489,0.491,0.77,0.788,1.032,1.072c1.918,1.774,2.913,2.51,3.202,2.407c-0.128-0.118-0.25,0.26-0.58,0.382
						c-0.003-0.216-1.082-1.255-2.908-2.66c-0.249-0.238-0.51-0.489-0.984-0.945c0.071,0.02,0.143,0.039,0.291,0.079
						c-1.317,0.25-2.998,0.569-5.377,1.021l-0.308,0.059l0.14-0.269c0.323-0.619,0.871-1.744,1.425-2.933
						c0.286-0.628,0.577-1.267,0.916-2.012c0.002,0.031,0.003,0.062,0.005,0.099c-0.869-1.472-1.782-3.019-2.78-4.709l-0.108-0.184
						l0.211,0.025c1.701,0.212,3.566,0.443,5.428,0.675c-0.024,0.009-0.048,0.018-0.076,0.028l0.021-0.023
						c1.249-1.423,2.495-2.84,3.591-4.087l0.132-0.15l0.04,0.197c0.397,1.953,0.78,3.766,1.137,5.352
						c-0.04-0.052-0.081-0.103-0.107-0.134c0.731,0.292,1.333,0.532,1.922,0.768c1.118,0.504,2.192,0.987,3.103,1.397l0.358,0.161
						l-0.342,0.189c-1.845,1.023-3.494,1.938-4.782,2.653c0.035-0.055,0.07-0.108,0.095-0.146c-0.292,3.323-0.405,5.312-0.346,5.451
						C217.538,139.244,217.35,139.049,217.436,138.909z"/>
				</g>
			</g>
		</g>
		<g id="OL_2_">
			<g>
				<g>
					<path fill="#CBDAE2" d="M150.001,23.082c-0.031-0.108-0.818-1.603-2.248-4.683l-0.055-0.116l0.069-0.118
						c0.582-1.004,1.612-2.709,2.854-4.667c0.035,0.055,0.132,0.208,0.229,0.36c-0.699,0.049-2.015,0.14-3.402,0.237
						c-0.637,0.071-1.285,0.142-2.051,0.227l-0.058,0.006l-0.039-0.045c-1.085-1.251-2.296-2.649-3.583-4.134
						c0.065-0.017,0.147-0.038,0.23-0.059c-0.336,1.663-0.709,3.511-1.083,5.362l-0.018,0.087l-0.084,0.036
						c-0.038,0.017-0.08,0.035-0.123,0.053c-1.675,0.725-3.351,1.449-4.898,2.119c0.01-0.156,0.018-0.291,0.026-0.425
						c1.699,0.941,3.274,1.814,4.786,2.651l0.142,0.079l0.018,0.171c0.086,0.884,0.162,1.664,0.237,2.432
						c0.072,1.156,0.136,2.29,0.162,3.025c-0.23-0.091-0.339-0.134-0.447-0.177c1.745-1.496,3.114-2.625,4.217-3.493L144.894,22
						l0.012,0.003c0.668,0.185,1.058,0.305,1.427,0.422c2.544,0.595,3.772,0.743,3.973,0.511c-0.17-0.039-0.088,0.35-0.315,0.618
						c-0.108-0.186-1.561-0.556-3.843-0.875c-0.334-0.085-0.685-0.174-1.321-0.335c0.071-0.018,0.143-0.037,0.292-0.075
						c-1.022,0.869-2.327,1.977-4.172,3.543l-0.239,0.203l-0.011-0.302c-0.024-0.699-0.104-1.948-0.209-3.255
						c-0.062-0.687-0.124-1.386-0.197-2.201c0.017,0.026,0.033,0.052,0.054,0.083c-1.483-0.851-3.042-1.745-4.745-2.723
						l-0.186-0.106l0.197-0.082c1.584-0.657,3.32-1.376,5.054-2.095c-0.017,0.02-0.033,0.039-0.052,0.062l0.006-0.029
						c0.384-1.854,0.767-3.702,1.103-5.328l0.041-0.195l0.132,0.151c1.311,1.501,2.538,2.889,3.632,4.091
						c-0.061-0.024-0.121-0.048-0.159-0.063c0.78-0.107,1.422-0.195,2.051-0.282c1.221-0.114,2.393-0.225,3.387-0.318l0.392-0.037
						l-0.203,0.333c-1.099,1.802-2.081,3.413-2.849,4.67c0.004-0.064,0.008-0.129,0.011-0.174c1.388,3.033,2.271,4.819,2.392,4.91
						C150.255,23.323,149.996,23.246,150.001,23.082z"/>
				</g>
			</g>
		</g>
		<g>
			<g>
				<g>
					<path fill="#CBDAE2" d="M27.464,143.854c0-0.112-0.325-1.771-0.814-5.131l-0.018-0.127l0.099-0.094
						c0.846-0.795,2.321-2.134,4.07-3.655c0.018,0.063,0.067,0.236,0.116,0.41c-0.684-0.153-1.971-0.442-3.328-0.746
						c-0.63-0.115-1.271-0.232-2.029-0.37l-0.058-0.011l-0.024-0.054c-0.682-1.51-1.443-3.195-2.251-4.986
						c0.066,0.003,0.152,0.006,0.237,0.01c-0.797,1.497-1.684,3.161-2.571,4.828l-0.042,0.078l-0.091,0.011
						c-0.041,0.005-0.087,0.011-0.133,0.016c-1.812,0.215-3.625,0.43-5.299,0.629c0.054-0.147,0.101-0.273,0.146-0.399
						c1.359,1.388,2.619,2.675,3.827,3.91l0.114,0.116l-0.033,0.168c-0.17,0.872-0.32,1.642-0.468,2.398
						c-0.262,1.128-0.524,2.233-0.71,2.944c-0.194-0.153-0.286-0.226-0.378-0.298c2.101-0.934,3.735-1.624,5.04-2.141l0.014-0.005
						l0.01,0.006c0.587,0.369,0.927,0.596,1.247,0.813c2.267,1.298,3.401,1.791,3.661,1.626c-0.152-0.086-0.185,0.311-0.479,0.503
						c-0.052-0.209-1.336-0.979-3.431-1.938c-0.296-0.178-0.607-0.363-1.171-0.7c0.074,0.003,0.148,0.006,0.301,0.012
						c-1.228,0.539-2.794,1.228-5.011,2.201l-0.287,0.126l0.076-0.292c0.176-0.676,0.458-1.896,0.73-3.178
						c0.138-0.676,0.278-1.363,0.442-2.165c0.008,0.029,0.017,0.059,0.027,0.095c-1.177-1.239-2.415-2.543-3.768-3.967l-0.146-0.154
						l0.212-0.022c1.706-0.176,3.575-0.368,5.441-0.562c-0.021,0.015-0.042,0.028-0.067,0.045l0.014-0.025
						c0.898-1.667,1.793-3.328,2.581-4.789l0.095-0.176l0.083,0.183c0.826,1.812,1.606,3.494,2.311,4.959
						c-0.051-0.041-0.103-0.081-0.135-0.106c0.778,0.121,1.417,0.22,2.044,0.317c1.203,0.239,2.357,0.47,3.336,0.665l0.385,0.077
						l-0.29,0.261c-1.568,1.412-2.971,2.674-4.065,3.66c0.022-0.062,0.045-0.122,0.06-0.164c0.461,3.304,0.796,5.267,0.886,5.389
						C27.638,144.158,27.412,144.01,27.464,143.854z"/>
				</g>
			</g>
		</g>
		<g>
			<g>
				<g>
					<path fill="#CBDAE2" d="M45.764,31.62c0.082-0.078,1.048-1.463,3.127-4.149l0.078-0.101l0.137,0.006
						c1.159,0.056,3.146,0.187,5.456,0.389c-0.033,0.057-0.124,0.212-0.214,0.369c-0.364-0.599-1.05-1.725-1.774-2.913
						c-0.355-0.533-0.716-1.076-1.143-1.716l-0.032-0.049L51.42,23.4c0.613-1.539,1.297-3.256,2.025-5.082
						c0.045,0.05,0.102,0.113,0.158,0.177c-1.631,0.466-3.445,0.984-5.262,1.503l-0.085,0.024l-0.071-0.058
						c-0.032-0.026-0.067-0.055-0.103-0.084c-1.414-1.155-2.828-2.311-4.134-3.377c0.144-0.063,0.267-0.118,0.39-0.172
						c-0.056,1.941-0.106,3.742-0.156,5.469l-0.005,0.163l-0.144,0.093c-0.746,0.483-1.403,0.909-2.05,1.328
						c-0.994,0.596-1.971,1.174-2.611,1.534c-0.025-0.246-0.037-0.362-0.049-0.478c2.131,0.863,3.762,1.559,5.04,2.14l0.014,0.006
						l0.002,0.012c0.143,0.679,0.215,1.081,0.281,1.462c0.64,2.533,1.074,3.691,1.372,3.763c-0.043-0.169-0.352,0.082-0.694,0.004
						c0.115-0.182-0.224-1.642-0.988-3.815c-0.079-0.336-0.161-0.688-0.31-1.329c0.049,0.055,0.099,0.11,0.201,0.225
						c-1.241-0.509-2.824-1.158-5.064-2.077l-0.29-0.119l0.263-0.148c0.609-0.343,1.682-0.987,2.794-1.682
						c0.582-0.37,1.173-0.747,1.864-1.186c-0.016,0.026-0.031,0.053-0.05,0.085c0.075-1.708,0.153-3.503,0.238-5.465l0.009-0.213
						l0.163,0.137c1.312,1.105,2.749,2.317,4.183,3.525c-0.025-0.005-0.05-0.011-0.079-0.017l0.03-0.008
						c1.823-0.511,3.641-1.02,5.239-1.468l0.193-0.054l-0.074,0.187c-0.731,1.854-1.4,3.583-1.965,5.106
						c-0.007-0.065-0.013-0.13-0.018-0.171c0.454,0.644,0.827,1.172,1.192,1.691c0.663,1.032,1.299,2.022,1.839,2.862l0.212,0.331
						l-0.389-0.027c-2.105-0.148-3.987-0.28-5.456-0.383c0.06-0.026,0.119-0.052,0.16-0.07c-2.057,2.627-3.237,4.231-3.262,4.381
						C45.667,31.956,45.616,31.69,45.764,31.62z"/>
				</g>
			</g>
		</g>
		<g>
			<g>
				<g>
					<path fill="#CBDAE2" d="M183.891,212.202c0.001-0.112-0.324-1.771-0.813-5.132l-0.019-0.127l0.1-0.094
						c0.846-0.795,2.32-2.134,4.07-3.655c0.018,0.063,0.066,0.236,0.116,0.41c-0.685-0.153-1.971-0.441-3.328-0.746
						c-0.63-0.115-1.271-0.232-2.029-0.37l-0.058-0.011l-0.024-0.054c-0.682-1.51-1.442-3.195-2.251-4.987
						c0.067,0.003,0.152,0.006,0.237,0.01c-0.798,1.497-1.685,3.162-2.572,4.829l-0.042,0.078l-0.091,0.011
						c-0.041,0.005-0.087,0.01-0.132,0.016c-1.812,0.215-3.625,0.43-5.3,0.629c0.054-0.147,0.101-0.273,0.146-0.399
						c1.358,1.388,2.618,2.675,3.827,3.91l0.113,0.116l-0.032,0.168c-0.171,0.872-0.321,1.642-0.47,2.398
						c-0.262,1.129-0.524,2.233-0.71,2.944c-0.195-0.153-0.286-0.226-0.378-0.298c2.101-0.935,3.734-1.624,5.04-2.141l0.014-0.005
						l0.01,0.006c0.588,0.369,0.928,0.597,1.248,0.813c2.267,1.299,3.401,1.792,3.66,1.628c-0.151-0.087-0.185,0.31-0.479,0.502
						c-0.051-0.209-1.336-0.979-3.431-1.939c-0.297-0.177-0.607-0.362-1.173-0.7c0.074,0.003,0.148,0.006,0.302,0.012
						c-1.228,0.539-2.794,1.228-5.011,2.201l-0.287,0.126l0.076-0.292c0.176-0.676,0.458-1.896,0.731-3.178
						c0.138-0.676,0.278-1.363,0.441-2.165c0.009,0.029,0.018,0.059,0.027,0.095c-1.177-1.239-2.415-2.543-3.768-3.967l-0.146-0.154
						l0.212-0.022c1.705-0.176,3.574-0.368,5.439-0.562c-0.021,0.015-0.042,0.028-0.066,0.045l0.015-0.027
						c0.898-1.666,1.794-3.327,2.582-4.788l0.095-0.176l0.083,0.183c0.826,1.813,1.606,3.495,2.31,4.96
						c-0.051-0.041-0.103-0.081-0.135-0.106c0.778,0.121,1.419,0.22,2.046,0.317c1.202,0.239,2.357,0.47,3.336,0.665l0.386,0.077
						l-0.29,0.261c-1.568,1.412-2.971,2.674-4.065,3.66c0.022-0.062,0.045-0.122,0.061-0.164c0.461,3.304,0.796,5.268,0.886,5.39
						C184.066,212.506,183.839,212.357,183.891,212.202z"/>
				</g>
			</g>
		</g>
		<g>
			<g>
				<g>
					<path fill="#CBDAE2" d="M218.891,228.202c0.001-0.112-0.324-1.771-0.813-5.132l-0.019-0.127l0.1-0.094
						c0.846-0.795,2.32-2.134,4.07-3.655c0.018,0.063,0.066,0.236,0.116,0.41c-0.685-0.153-1.971-0.441-3.328-0.746
						c-0.63-0.115-1.271-0.232-2.029-0.37l-0.058-0.011l-0.024-0.054c-0.682-1.51-1.442-3.195-2.251-4.987
						c0.067,0.003,0.152,0.006,0.237,0.01c-0.798,1.497-1.685,3.162-2.572,4.829l-0.042,0.078l-0.091,0.011
						c-0.041,0.005-0.087,0.01-0.132,0.016c-1.812,0.215-3.625,0.43-5.3,0.629c0.054-0.147,0.101-0.273,0.146-0.399
						c1.358,1.388,2.618,2.675,3.827,3.91l0.113,0.116l-0.032,0.168c-0.171,0.872-0.321,1.642-0.47,2.398
						c-0.262,1.129-0.524,2.233-0.71,2.944c-0.195-0.153-0.286-0.226-0.378-0.298c2.101-0.935,3.734-1.624,5.04-2.141l0.014-0.005
						l0.01,0.006c0.588,0.369,0.928,0.597,1.248,0.813c2.267,1.299,3.401,1.792,3.66,1.628c-0.151-0.087-0.185,0.31-0.479,0.502
						c-0.051-0.209-1.336-0.979-3.431-1.939c-0.297-0.177-0.607-0.362-1.173-0.7c0.074,0.003,0.148,0.006,0.302,0.012
						c-1.228,0.539-2.794,1.228-5.011,2.201l-0.287,0.126l0.076-0.292c0.176-0.676,0.458-1.896,0.731-3.178
						c0.138-0.676,0.278-1.363,0.441-2.165c0.009,0.029,0.018,0.059,0.027,0.095c-1.177-1.239-2.415-2.543-3.768-3.967l-0.146-0.154
						l0.212-0.022c1.705-0.176,3.574-0.368,5.439-0.562c-0.021,0.015-0.042,0.028-0.066,0.045l0.015-0.027
						c0.898-1.666,1.794-3.327,2.582-4.788l0.095-0.176l0.083,0.183c0.826,1.813,1.606,3.495,2.31,4.96
						c-0.051-0.041-0.103-0.081-0.135-0.106c0.778,0.121,1.419,0.22,2.046,0.317c1.202,0.239,2.357,0.47,3.336,0.665l0.386,0.077
						l-0.29,0.261c-1.568,1.412-2.971,2.674-4.065,3.66c0.022-0.062,0.045-0.122,0.061-0.164c0.461,3.304,0.796,5.268,0.886,5.39
						C219.066,228.506,218.839,228.357,218.891,228.202z"/>
				</g>
			</g>
		</g>
	</g>
	<g id="Beams_1_">
		<g id="Line_32_">
			<g>
				<g>
					<path fill="#CBDAE2" d="M7.293,112.831c0.056,0,0.781-0.278,2.021-0.643c1.239-0.365,2.994-0.817,5.11-1.165
						c2.063-0.547,4.349-1.154,6.639-1.762c2.279-0.646,4.562-1.292,6.667-1.889c1.953-0.421,3.798-0.743,5.16-0.891
						c1.322-0.343,1.91-0.636,1.915-0.918c-0.088,0.023,0.086,0.35,0.083,0.675c-0.113-0.131-0.879,0.036-1.988,0.54
						c-1.301,0.298-3.119,0.538-5.177,1.057c-2.073,0.573-4.388,1.123-6.678,1.699s-4.556,1.177-6.536,1.83
						c-4.15,0.907-7.145,1.81-7.231,1.963C7.162,113.001,7.201,112.78,7.293,112.831z"/>
				</g>
			</g>
		</g>
		<g id="Line_31_">
			<g>
				<g>
					<path fill="#CBDAE2" d="M60.659,98.826c0.067-0.001,0.949-0.299,2.45-0.698c1.501-0.398,3.622-0.896,6.165-1.296
						c2.494-0.602,5.257-1.268,8.025-1.936c2.759-0.706,5.521-1.413,8.068-2.065c2.354-0.471,4.574-0.839,6.204-1.021
						c1.598-0.377,2.319-0.688,2.344-0.973c-0.106,0.026,0.079,0.353,0.052,0.68c-0.126-0.13-1.049,0.058-2.405,0.592
						c-1.57,0.332-3.75,0.617-6.237,1.19c-2.508,0.627-5.302,1.237-8.068,1.874c-2.767,0.635-5.505,1.296-7.909,2.002
						c-5.003,1.014-8.631,1.996-8.745,2.154C60.491,99.001,60.552,98.776,60.659,98.826z"/>
				</g>
			</g>
		</g>
		<g id="Line_30_">
			<g>
				<g>
					<path fill="#CBDAE2" d="M123.348,83.315c0.043,0.005,0.597-0.212,1.546-0.473c0.95-0.262,2.297-0.568,3.926-0.741
						c1.585-0.365,3.341-0.771,5.092-1.208c1.747-0.455,3.497-0.911,5.111-1.331c1.501-0.259,2.921-0.43,3.971-0.467
						c1.015-0.233,1.462-0.475,1.458-0.753c-0.068,0.016,0.076,0.353,0.083,0.672c-0.092-0.139-0.68-0.035-1.525,0.374
						c-0.999,0.19-2.4,0.282-3.979,0.63c-1.59,0.4-3.367,0.758-5.125,1.144c-1.757,0.385-3.495,0.797-5.011,1.284
						c-3.188,0.564-5.482,1.215-5.545,1.36C123.25,83.474,123.275,83.258,123.348,83.315z"/>
				</g>
			</g>
		</g>
		<g id="Line_29_">
			<g>
				<g>
					<path fill="#CBDAE2" d="M73.899,185.455c0.056-0.026,0.661-0.631,1.74-1.562c1.08-0.932,2.633-2.189,4.586-3.522
						c1.82-1.493,3.837-3.148,5.858-4.806c1.996-1.688,3.994-3.378,5.836-4.938c1.762-1.323,3.457-2.504,4.742-3.292
						c1.17-0.949,1.635-1.503,1.528-1.766c-0.078,0.063,0.224,0.283,0.349,0.585c-0.165-0.067-0.854,0.454-1.75,1.45
						c-1.167,0.898-2.867,1.99-4.694,3.455c-1.82,1.521-3.888,3.138-5.921,4.767c-2.034,1.628-4.033,3.269-5.73,4.819
						c-3.738,2.824-6.339,5.092-6.363,5.276C73.837,185.676,73.788,185.452,73.899,185.455z"/>
				</g>
			</g>
		</g>
		<g id="Line_28_">
			<g>
				<g>
					<path fill="#CBDAE2" d="M121.628,146.524c0.03-0.008,0.272-0.337,0.748-0.811c0.475-0.473,1.182-1.09,2.141-1.672
						c0.829-0.729,1.748-1.54,2.646-2.375c0.9-0.835,1.781-1.692,2.595-2.482c0.832-0.619,1.657-1.143,2.314-1.456
						c0.531-0.466,0.692-0.789,0.544-1.02c-0.035,0.031,0.234,0.274,0.407,0.539c-0.133-0.091-0.457,0.154-0.787,0.722
						c-0.544,0.427-1.398,0.879-2.234,1.594c-0.814,0.76-1.771,1.536-2.702,2.329c-0.93,0.793-1.833,1.604-2.555,2.417
						c-1.759,1.325-2.896,2.485-2.859,2.623C121.649,146.682,121.55,146.496,121.628,146.524z"/>
				</g>
			</g>
		</g>
		<g id="Line_27_">
			<g>
				<g>
					<path fill="#CBDAE2" d="M37.341,55.535c0.057,0.017,0.877-0.042,2.248-0.037c1.37,0.005,3.291,0.075,5.547,0.35
						c2.262,0.067,4.769,0.142,7.28,0.216c2.512,0.035,5.027,0.07,7.347,0.103c2.113,0.157,4.086,0.377,5.515,0.626
						c1.448,0.051,2.134-0.062,2.223-0.33c-0.097-0.003-0.017,0.36-0.117,0.67c-0.077-0.158-0.905-0.217-2.185-0.053
						c-1.413-0.087-3.333-0.379-5.583-0.472c-2.28-0.046-4.799-0.183-7.301-0.287c-2.502-0.105-4.986-0.179-7.196-0.122
						c-4.493-0.321-7.81-0.316-7.944-0.193C37.157,55.661,37.262,55.46,37.341,55.535z"/>
				</g>
			</g>
		</g>
		<g id="Line_26_">
			<g>
				<g>
					<path fill="#CBDAE2" d="M98.381,56.943c0.089,0.019,1.358-0.012,3.48,0.04c2.122,0.052,5.096,0.188,8.595,0.54
						c3.504,0.145,7.388,0.305,11.276,0.465c3.892,0.121,7.787,0.242,11.38,0.354c3.273,0.229,6.332,0.518,8.548,0.815
						c2.242,0.1,3.304,0.011,3.438-0.254c-0.149-0.006-0.021,0.36-0.173,0.667c-0.12-0.161-1.404-0.249-3.384-0.128
						c-2.188-0.136-5.167-0.493-8.651-0.663c-3.531-0.124-7.435-0.347-11.311-0.537c-3.876-0.191-7.724-0.35-11.146-0.367
						c-3.48-0.237-6.505-0.383-8.685-0.455c-2.18-0.072-3.515-0.069-3.619-0.01C98.097,57.063,98.258,56.865,98.381,56.943z"/>
				</g>
			</g>
		</g>
		<g id="Line_25_">
			<g>
				<g>
					<path fill="#CBDAE2" d="M132.494,220.113c0.036-0.045,0.271-0.803,0.763-2.031c0.491-1.228,1.237-2.926,2.292-4.85
						c0.864-2.006,1.822-4.229,2.782-6.456c0.923-2.241,1.848-4.486,2.7-6.558c0.896-1.838,1.8-3.528,2.537-4.719
						c0.561-1.28,0.699-1.938,0.481-2.118c-0.037,0.086,0.329,0.149,0.581,0.354c-0.175,0.011-0.522,0.732-0.824,1.941
						c-0.582,1.235-1.534,2.853-2.418,4.837c-0.851,2.03-1.871,4.241-2.855,6.448s-1.934,4.41-2.664,6.415
						c-1.892,3.914-3.062,6.894-2.995,7.06C132.545,220.325,132.396,220.156,132.494,220.113z"/>
				</g>
			</g>
		</g>
		<g id="Line_24_">
			<g>
				<g>
					<path fill="#CBDAE2" d="M156.867,166.236c0.032-0.035,0.228-0.658,0.649-1.657s1.07-2.374,2.008-3.912
						c0.749-1.626,1.58-3.428,2.412-5.232c0.796-1.821,1.594-3.646,2.329-5.327c0.786-1.48,1.588-2.834,2.25-3.778
						c0.487-1.037,0.593-1.584,0.374-1.757c-0.032,0.07,0.325,0.157,0.578,0.355c-0.168-0.008-0.475,0.573-0.713,1.574
						c-0.51,0.997-1.361,2.283-2.131,3.89c-0.735,1.647-1.626,3.433-2.483,5.219s-1.681,3.571-2.3,5.209
						c-1.66,3.154-2.664,5.579-2.593,5.727C156.925,166.421,156.773,166.264,156.867,166.236z"/>
				</g>
			</g>
		</g>
		<g id="Line_22_">
			<g>
				<g>
					<path fill="#CBDAE2" d="M177.956,120.323c0.035-0.008-0.06-0.721,0.649-1.345c0.177-0.396,0.371-0.835,0.537-1.288
						c0.167-0.453,0.308-0.919,0.438-1.349c0.241-0.334,0.533-0.615,0.826-0.781c0.113-0.253,0.044-0.43-0.195-0.561
						c-0.007,0.017,0.326,0.155,0.602,0.305c-0.146-0.052-0.239,0.08-0.15,0.391c-0.146,0.231-0.5,0.472-0.689,0.859
						c-0.148,0.413-0.391,0.833-0.603,1.262c-0.213,0.43-0.396,0.869-0.448,1.312c-0.502,0.716-0.652,1.346-0.547,1.423
						C178.061,120.411,177.883,120.306,177.956,120.323z"/>
				</g>
			</g>
		</g>
		<g id="Line_18_">
			<g>
				<g>
					<path fill="#CBDAE2" d="M68.699,10.557c0.026,0.022,0.484,0.061,1.221,0.225c0.737,0.165,1.754,0.455,2.9,0.982
						c1.199,0.337,2.529,0.71,3.869,1.053c1.34,0.344,2.69,0.66,3.935,0.952c1.099,0.397,2.105,0.839,2.812,1.245
						c0.767,0.217,1.166,0.188,1.284-0.061c-0.051-0.014-0.103,0.346-0.236,0.634c0-0.162-0.432-0.315-1.164-0.305
						c-0.739-0.249-1.7-0.752-2.889-1.104c-1.217-0.309-2.54-0.733-3.862-1.125c-1.321-0.392-2.642-0.751-3.848-0.953
						c-2.339-0.832-4.129-1.211-4.233-1.108C68.567,10.657,68.676,10.475,68.699,10.557z"/>
				</g>
			</g>
		</g>
		<g id="Line_9_">
			<g>
				<g>
					<path fill="#CBDAE2" d="M107.844,22.241c0.078,0.038,1.265,0.299,3.223,0.836c1.958,0.537,4.688,1.35,7.852,2.493
						c3.22,0.943,6.788,1.988,10.361,3.035c3.585,1.009,7.174,2.019,10.484,2.951c2.984,0.973,5.756,1.953,7.741,2.749
						c2.059,0.611,3.066,0.768,3.256,0.541c-0.137-0.04-0.107,0.344-0.323,0.607c-0.072-0.184-1.244-0.562-3.111-0.899
						c-2-0.633-4.68-1.662-7.875-2.625c-3.25-0.929-6.821-2.04-10.375-3.113s-7.09-2.108-10.264-2.91
						c-3.176-1.027-5.949-1.862-7.957-2.431c-2.007-0.569-3.249-0.873-3.359-0.838C107.551,22.292,107.749,22.137,107.844,22.241z"
						/>
				</g>
			</g>
		</g>
		<g id="Line_8_">
			<g>
				<g>
					<path fill="#CBDAE2" d="M208.716,205.843c0.008-0.059-0.169-0.853-0.361-2.192c-0.192-1.341-0.399-3.228-0.454-5.475
						c-0.26-2.221-0.548-4.683-0.836-7.148c-0.327-2.461-0.655-4.926-0.958-7.198c-0.149-2.088-0.216-4.05-0.176-5.482
						c-0.159-1.423-0.369-2.077-0.647-2.126c0.011,0.096,0.358-0.035,0.68,0.019c-0.146,0.097-0.084,0.916,0.263,2.143
						c0.117,1.394,0.105,3.314,0.338,5.526c0.284,2.236,0.512,4.719,0.77,7.181c0.257,2.461,0.542,4.9,0.918,7.053
						c0.33,4.439,0.813,7.681,0.955,7.794C208.867,206.005,208.653,205.931,208.716,205.843z"/>
				</g>
			</g>
		</g>
		<g id="Line_5_">
			<g>
				<g>
					<path fill="#CBDAE2" d="M201.554,143.615c0.007-0.061-0.18-0.884-0.389-2.275c-0.21-1.391-0.441-3.35-0.523-5.682
						c-0.289-2.306-0.608-4.86-0.928-7.42c-0.359-2.554-0.719-5.111-1.05-7.47c-0.177-2.168-0.268-4.204-0.246-5.692
						c-0.177-1.476-0.396-2.155-0.675-2.204c0.013,0.098,0.358-0.039,0.681,0.016c-0.145,0.102-0.073,0.952,0.29,2.224
						c0.135,1.447,0.147,3.441,0.408,5.737c0.312,2.32,0.572,4.897,0.86,7.452c0.289,2.555,0.605,5.087,1.009,7.32
						c0.387,4.607,0.911,7.972,1.054,8.089C201.708,143.783,201.492,143.706,201.554,143.615z"/>
				</g>
			</g>
		</g>
		<g id="Line_2_">
			<g>
				<g>
					<path fill="#CBDAE2" d="M37.361,154.765c0.085-0.045,1.284-0.667,3.292-1.71c2.02-1.018,4.882-2.39,8.339-3.834
						c3.364-1.63,7.092-3.436,10.825-5.244c3.716-1.845,7.437-3.69,10.869-5.394c3.188-1.439,6.202-2.72,8.426-3.568
						c2.156-1.036,3.112-1.646,3.112-1.948c-0.144,0.07,0.151,0.328,0.154,0.674c-0.19-0.081-1.439,0.485-3.242,1.584
						c-2.123,0.978-5.094,2.156-8.451,3.754c-3.379,1.661-7.156,3.422-10.891,5.197s-7.43,3.565-10.656,5.265
						c-3.386,1.536-6.299,2.924-8.383,3.954c-2.083,1.03-3.338,1.702-3.407,1.806C37.15,155.012,37.208,154.757,37.361,154.765z"/>
				</g>
			</g>
		</g>
		<g id="Line_1_">
			<g>
				<g>
					<path fill="#CBDAE2" d="M115.906,117.485c0.049-0.009,0.601-0.395,1.572-0.949c0.972-0.554,2.363-1.276,4.093-1.957
						c1.632-0.864,3.44-1.821,5.253-2.78c1.793-0.994,3.589-1.989,5.245-2.907c1.57-0.724,3.073-1.336,4.204-1.702
						c1.048-0.546,1.479-0.924,1.412-1.195c-0.07,0.037,0.163,0.322,0.242,0.633c-0.131-0.107-0.746,0.179-1.57,0.844
						c-1.042,0.5-2.542,1.029-4.178,1.865c-1.634,0.89-3.482,1.798-5.303,2.727s-3.612,1.877-5.147,2.829
						c-3.333,1.552-5.676,2.909-5.711,3.071C115.836,117.67,115.814,117.451,115.906,117.485z"/>
				</g>
			</g>
		</g>
	</g>
	<g id="Moon_3_">
		<g>
			<g>
				<path fill="#CBDAE2" d="M214.994,94.435c0.07-0.003,0.302-0.015,2.728-0.136l0.374-0.019l-0.284,0.229
					c-0.194,0.157-0.619,0.5-1.258,1.015c-0.32,0.257-0.694,0.558-1.12,0.9c-0.453,0.304-0.962,0.645-1.522,1.021
					c-2.25,1.472-5.546,3.329-9.979,4.509c-4.413,1.188-9.943,1.658-15.947,0.489c-2.958-0.695-6.08-1.605-9.029-3.237
					c-0.375-0.19-0.751-0.38-1.13-0.572c-0.359-0.227-0.72-0.455-1.082-0.684c-0.715-0.473-1.472-0.901-2.171-1.426
					c-0.688-0.541-1.381-1.086-2.081-1.638c-0.707-0.542-1.311-1.217-1.979-1.828c-2.855-2.746-5.35-6.027-7.275-9.71
					c-1.938-3.681-3.193-7.789-3.792-12.038c-0.075-0.532-0.167-1.063-0.229-1.598l-0.081-1.609
					c-0.05-1.068-0.141-2.158-0.064-3.243l0.06-1.628l0.17-1.624c0.078-1.089,0.323-2.157,0.499-3.236
					c0.852-4.294,2.526-8.439,4.798-12.213c3.607-5.946,8.998-10.732,14.752-13.59l0.674-0.335l-0.364,0.662
					c-1.315,2.391-2.386,4.863-3.233,7.373c-0.813,2.522-1.363,5.08-1.725,7.628c-0.104,1.282-0.299,2.531-0.297,3.818
					c-0.014,0.634-0.048,1.287-0.044,1.898c0.034,0.629,0.067,1.256,0.101,1.881s0.065,1.248,0.099,1.868
					c0.036,0.621,0.171,1.229,0.251,1.84c0.205,1.217,0.311,2.445,0.664,3.615c0.217,0.891,0.434,1.778,0.648,2.662
					c0.273,0.866,0.59,1.715,0.88,2.567l0.442,1.272l0.553,1.218c0.371,0.809,0.739,1.613,1.104,2.411
					c0.439,0.76,0.876,1.514,1.309,2.262l0.646,1.119l0.742,1.043c0.492,0.693,0.98,1.38,1.464,2.06
					c0.543,0.633,1.08,1.26,1.612,1.879c1.016,1.287,2.251,2.312,3.353,3.411c0.539,0.565,1.192,0.981,1.77,1.47
					c0.596,0.466,1.172,0.941,1.759,1.381c1.242,0.778,2.401,1.611,3.597,2.273c1.225,0.606,2.361,1.283,3.521,1.767
					c4.675,2.023,8.46,2.385,10.934,2.722c2.524,0.071,3.857,0.031,4.139-0.088c-0.675-0.034-0.041,0.359-0.674,0.64
					c-0.142-0.046-0.61-0.102-1.372-0.162c-0.761-0.092-1.819-0.046-3.129-0.307c-1.306-0.224-2.899-0.364-4.642-0.876
					c-0.44-0.11-0.895-0.223-1.361-0.339c-0.471-0.106-0.95-0.233-1.424-0.421c-0.96-0.339-1.971-0.696-3.027-1.069
					c-4.57-1.979-9.588-5.342-13.926-10.343c-2.241-2.436-4.116-5.408-5.835-8.611c-0.754-1.658-1.6-3.321-2.158-5.141
					c-0.706-1.768-1.09-3.671-1.578-5.58c-0.226-1.159-0.367-2.343-0.556-3.529c-0.041-0.297-0.098-0.593-0.126-0.893l-0.046-0.905
					c-0.03-0.604-0.062-1.211-0.092-1.821c-0.163-2.443,0.046-4.914,0.36-7.421c0.347-2.5,0.967-4.996,1.759-7.481
					c0.861-2.463,1.933-4.897,3.243-7.258c0.043,0.045,0.086,0.091,0.137,0.145c-5.86,2.849-11.382,7.819-14.996,13.971
					c-4.508,7.494-6.111,16.57-4.756,24.89c0.642,4.159,1.963,8.151,3.851,11.739c1.931,3.568,4.395,6.721,7.176,9.346
					c2.181,2.235,4.736,3.914,7.23,5.449c2.602,1.352,5.205,2.536,7.861,3.186c5.269,1.43,10.407,1.484,14.78,0.755
					c4.393-0.727,8.037-2.239,10.823-3.784c1.435-0.713,2.566-1.599,3.614-2.261c0.983-0.758,1.799-1.43,2.467-1.963
					c0.081,0.191,0.162,0.382,0.211,0.496c-2.492,0.148-3.604,0.229-3.79,0.264C213.746,94.629,214.427,94.39,214.994,94.435z"/>
			</g>
		</g>
	</g>
</g>
</svg>
